<svg xmlns="http://www.w3.org/2000/svg" height="512" viewBox="0 0 468 468" width="512"  ><g fill="#fff"><path d="M150.448 452.639c11.236 4.297 22.903 7.744 34.677 10.247l5.821-27.388a204.95 204.95 0 0 1-30.498-9.012zM87.93 416.821c9.396 7.516 19.442 14.355 29.862 20.327l13.924-24.292c-9.173-5.258-18.02-11.281-26.294-17.9zM35.906 290.727l-26.922 7.694c3.303 11.556 7.542 22.95 12.6 33.864l25.404-11.773a205.23 205.23 0 0 1-11.082-29.785zm3.347 73.044c6.666 9.985 14.167 19.539 22.295 28.397l20.63-18.931c-7.16-7.803-13.767-16.219-19.638-25.012zm428.142-146.732l-27.929 2.003c.355 4.949.535 9.981.534 14.958 0 5.619-.229 11.295-.68 16.869l27.909 2.259c.512-6.322.771-12.758.771-19.125a237.99 237.99 0 0 0-.605-16.964zm-5.353-35.726a233.12 233.12 0 0 0-10.821-34.483l-25.982 10.437c3.942 9.815 7.145 20.019 9.517 30.327zm-70.476 185.393l21.406 18.049c7.754-9.196 14.85-19.062 21.091-29.323l-23.923-14.55a207.34 207.34 0 0 1-18.574 25.824zm32.948-54.193l25.884 10.679c4.59-11.125 8.34-22.697 11.148-34.396l-27.227-6.534a204.94 204.94 0 0 1-9.805 30.251zm-202.05 127.17l-1.542 27.958A239.25 239.25 0 0 0 234 468a237.63 237.63 0 0 0 22.998-1.117l-2.72-27.867a210.47 210.47 0 0 1-31.814.667zm121.283-31.317l14.938 23.682c10.153-6.404 19.897-13.657 28.963-21.555l-18.394-21.111c-7.984 6.956-16.566 13.344-25.507 18.984zm-58.165 25.127l6.989 27.113a233.09 233.09 0 0 0 34.182-11.713l-11.107-25.702c-9.711 4.196-19.826 7.662-30.064 10.302zM336.95 98.168h58.123c8.041.178 14.901-7.395 13.932-15.379l-5.799-58.598-27.864 2.758 2.2 22.225c-14.885-11.587-31.103-21.324-48.518-29.071C299.039 6.763 267.069 0 234 0 171.497 0 112.734 24.34 68.537 68.537S0 171.497 0 234c0 9.695.6 19.458 1.783 29.02l27.788-3.438A209.22 209.22 0 0 1 28 234c0-113.589 92.411-206 206-206 45.227 0 89.17 15.087 124.806 42.168H336.95z"/><circle cx="234" cy="234" r="135"/></g><path d="M184.119 221.672c0-11.922-7.732-23.951-25.006-23.951-8.139 0-15.949 2.807-21.992 7.905l-2.336 1.97 6.397 14.16 4.084-3.402c2.178-1.814 6.626-4.857 11.951-4.857 4.097 0 9.544.968 9.544 9.297-.086 8.567-7.215 16.723-24.266 32.955l-8.496 8.25v11.44h51.805v-15.776H161.03c13.207-12.837 23.089-24.008 23.089-37.991zm65.244-22.793h-16.156l-32.488 46.489v11.423h31.813v18.647h16.831v-18.647h9.585V241.44h-9.585zm-27.486 42.561l10.655-14.812v14.812zm90.278-26.23c-4.133 0-8.74 1.443-12.284 3.633v-26.282h-17.358v82.876h17.358v-34.801c0-12.323 16.771-12.642 16.771 1.475v33.326H334v-34.381c0-19.077-11.768-25.846-21.845-25.846z" fill="#dd3034"/></svg>