<svg xmlns="http://www.w3.org/2000/svg" viewBox="0 0 511.992 511.992" fill="white" width="512" height="512"  ><path d="M511.005 279.646c-4.597-46.238-25.254-89.829-58.168-122.744a200.8 200.8 0 0 0-98.782-54.239V77.255c14.796-3.681 25.794-17.074 25.794-32.993 0-18.748-15.252-34-34-34h-72c-18.748 0-34 15.252-34 34 0 15.918 10.998 29.311 25.793 32.993v25.479c-36.115 8.071-70.429 26.121-98.477 54.169-6.138 6.138-11.798 12.577-16.979 19.269-.251-.019-.502-.038-.758-.038H78.167c-5.522 0-10 4.477-10 10s4.478 10 10 10h58.412c-7.332 12.275-13.244 25.166-17.744 38.436H10c-5.522 0-10 4.477-10 10s4.478 10 10 10h103.184c-2.882 12.651-4.536 25.526-4.963 38.437H64c-5.522 0-10 4.477-10 10s4.478 10 10 10h44.54c.844 12.944 2.925 25.82 6.244 38.437H50c-5.522 0-10 4.477-10 10s4.478 10 10 10h71.166c9.81 25.951 25.141 50.274 45.999 71.132 32.946 32.946 76.582 53.608 122.868 58.181 6.606.652 13.217.975 19.819.975 39.022 0 77.548-11.293 110.238-32.581 4.628-3.014 5.937-9.209 2.923-13.837s-9.209-5.937-13.837-2.923c-71.557 46.597-167.39 36.522-227.869-23.957-70.962-70.962-70.962-186.425 0-257.388s186.424-70.961 257.387 0c60.399 60.4 70.529 156.151 24.086 227.673-3.008 4.632-1.691 10.826 2.94 13.833a10 10 0 0 0 13.833-2.941c24.814-38.215 35.984-84.37 31.452-129.965zM259.849 44.263a14.02 14.02 0 0 1 14-14h72a14.02 14.02 0 0 1 14 14 14.02 14.02 0 0 1-14 14h-72a14.02 14.02 0 0 1-14-14zm25.793 55.033V78.263h48.413V99.26c-16.076-1.912-32.34-1.9-48.413.036zM445.77 425.5c-2.64 0-5.21 1.07-7.069 2.93-1.87 1.86-2.931 4.44-2.931 7.07s1.061 5.21 2.931 7.07c1.859 1.87 4.43 2.93 7.069 2.93a10.05 10.05 0 0 0 7.07-2.93c1.86-1.86 2.93-4.44 2.93-7.07s-1.069-5.21-2.93-7.07c-1.87-1.86-4.441-2.93-7.07-2.93zM310.001 144.609c-85.538 0-155.129 69.59-155.129 155.129s69.591 155.129 155.129 155.129 155.129-69.59 155.129-155.129-69.591-155.129-155.129-155.129zm0 290.258c-74.511 0-135.129-60.619-135.129-135.129s60.618-135.129 135.129-135.129S445.13 225.228 445.13 299.738s-60.618 135.129-135.129 135.129zm63.256-212.527l-49.53 49.529c-4.142-2.048-8.801-3.205-13.726-3.205a30.88 30.88 0 0 0-13.726 3.205l-22.167-22.167c-3.906-3.905-10.236-3.905-14.143 0a10 10 0 0 0 0 14.142l22.167 22.167a30.87 30.87 0 0 0-3.205 13.726c0 17.134 13.939 31.074 31.074 31.074s31.074-13.94 31.074-31.074c0-4.925-1.157-9.584-3.205-13.726l49.529-49.529c3.905-3.905 3.905-10.237 0-14.142s-10.235-3.905-14.142 0zm-63.256 88.472a11.09 11.09 0 0 1-11.074-11.074 11.09 11.09 0 0 1 11.074-11.074 11.09 11.09 0 0 1 11.074 11.074 11.09 11.09 0 0 1-11.074 11.074zM416.92 289.86h-9.265c-5.522 0-10 4.477-10 10s4.478 10 10 10h9.265c5.522 0 10-4.477 10-10s-4.478-10-10-10zm-204.574-.244h-9.264c-5.522 0-10 4.477-10 10s4.478 10 10 10h9.264c5.522 0 10-4.477 10-10s-4.478-10-10-10zm97.777-77.533c5.522 0 10-4.477 10-10v-9.264c0-5.523-4.478-10-10-10s-10 4.477-10 10v9.264c0 5.523 4.478 10 10 10zm-.244 175.31c-5.522 0-10 4.477-10 10v9.264c0 5.523 4.478 10 10 10s10-4.477 10-10v-9.264c0-5.523-4.478-10-10-10zM10 351.44c-2.63 0-5.21 1.07-7.07 2.93S0 358.81 0 361.44c0 2.64 1.069 5.21 2.93 7.07a10.08 10.08 0 0 0 7.07 2.93c2.63 0 5.21-1.07 7.069-2.93A10.08 10.08 0 0 0 20 361.44c0-2.63-1.07-5.21-2.931-7.07s-4.439-2.93-7.069-2.93z"/></svg>