<svg xmlns="http://www.w3.org/2000/svg" viewBox="0 0 431.2 431.2" fill="white"  ><path d="M324.8 0H106.4c-9.6 0-16.8 8-16.8 16.8v397.6c0 9.6 8 16.8 16.8 16.8h218.4c9.6 0 16.8-8 16.8-16.8V16.8c0-9.6-7.2-16.8-16.8-16.8zm.8 413.6c0 .8-.8.8-.8.8H106.4c-.8 0-.8-.8-.8-.8V16.8c0-.8.8-.8.8-.8h218.4c.8 0 .8.8.8.8v396.8zM294.4 30.4H137.6c-9.6 0-16.8 8-16.8 16.8v62.4c0 9.6 8 16.8 16.8 16.8h156.8c9.6 0 16.8-8 16.8-16.8V47.2c0-9.6-8-16.8-16.8-16.8zm.8 79.2c0 .8-.8.8-.8.8H137.6c-.8 0-.8-.8-.8-.8V47.2c0-.8.8-.8.8-.8h156.8c.8 0 .8.8.8.8v62.4zm-.8 31.2H137.6c-9.6 0-16.8 8-16.8 16.8v28c0 9.6 8 16.8 16.8 16.8h156.8c9.6 0 16.8-8 16.8-16.8v-28c0-9.6-8-16.8-16.8-16.8zm.8 45.6c0 .8-.8.8-.8.8H137.6c-.8 0-.8-.8-.8-.8v-28c0-.8.8-.8.8-.8h156.8c.8 0 .8.8.8.8v28zm-.8 59.2H137.6c-9.6 0-16.8 8-16.8 16.8v116c0 9.6 8 16.8 16.8 16.8h156.8c9.6 0 16.8-8 16.8-16.8v-116c0-9.6-8-16.8-16.8-16.8zm.8 132c0 .8-.8.8-.8.8H137.6c-.8 0-.8-.8-.8-.8V262.4c0-.8.8-.8.8-.8h156.8c.8 0 .8.8.8.8v115.2zM216 272c-17.6 0-32 14.4-32 32s14.4 32 32 32 32-14.4 32-32-14.4-32-32-32zm0 48c-8.8 0-16-7.2-16-16s7.2-16 16-16 16 7.2 16 16-7.2 16-16 16zm24.8-235.2h34.4v16h-34.4zm6.4 266.4h34.4v16h-34.4z"/></svg>