<svg xmlns="http://www.w3.org/2000/svg" viewBox="0 0 512 512" fill="#DD3034"  ><g fill="#fff"><path d="M87.43 21.315h35.67v70.96H87.43zm75.37 0h35.67v70.96H162.8zm75.36 0h35.67v70.96h-35.67zm75.37 0h35.67v70.96h-35.67z"/><path d="M388.9 21.315h35.67v70.96H388.9zM87.43 419.731h35.67v70.96H87.43zm75.37 0h35.67v70.96H162.8zm75.36 0h35.67v70.96h-35.67z"/><path d="M313.53 419.731h35.67v70.96h-35.67zm75.37 0h35.67v70.96H388.9zm30.83-332.3h70.96v35.67h-70.96zm0 75.37h70.96v35.67h-70.96z"/><path d="M419.73 238.171h70.96v35.67h-70.96zm0 75.36h70.96v35.67h-70.96zm0 75.37h70.96v35.67h-70.96zM21.314 87.431h70.96v35.67h-70.96zm0 75.37h70.96v35.67h-70.96zm0 75.37h70.96v35.67h-70.96zm0 75.36h70.96v35.67h-70.96zm0 75.37h70.96v35.67h-70.96z"/><path d="M60.35 60.351h391.29v391.29H60.35z"/><path d="M102.45 102.451h307.1v307.1h-307.1z"/><path d="M385.5 102.451h24.05v307.1H385.5zm-234.95 37.62h53.41v109.74h-53.41z"/><path d="M185.29 140.071h18.667v109.74H185.29zm-34.74 139.09h53.41v45.88h-53.41z"/><path d="M185.29 279.161h18.667v45.88H185.29z"/><circle cx="353.91" cy="146.26" r="15.22"/><circle cx="353.91" cy="201.131" r="15.22"/><circle cx="353.91" cy="256" r="15.22"/><circle cx="353.91" cy="310.87" r="15.22"/><circle cx="353.91" cy="365.74" r="15.22"/></g><path d="M490.69 205.967a7.5 7.5 0 0 0 7.5-7.5v-10.331h6.31a7.5 7.5 0 1 0 0-15h-6.31v-10.34a7.5 7.5 0 0 0-7.5-7.5h-31.543v-24.689h31.543a7.5 7.5 0 0 0 7.5-7.5v-10.336h6.31a7.5 7.5 0 1 0 0-15h-6.31V87.437a7.5 7.5 0 0 0-7.5-7.5h-31.543V60.355a7.5 7.5 0 0 0-7.5-7.5H432.07V21.316a7.5 7.5 0 0 0-7.5-7.5h-10.339V7.501a7.5 7.5 0 1 0-15 0v6.315H388.9a7.5 7.5 0 0 0-7.5 7.5v31.538h-24.7V21.316a7.5 7.5 0 0 0-7.5-7.5h-10.335V7.501a7.5 7.5 0 1 0-15 0v6.315H313.53a7.5 7.5 0 0 0-7.5 7.5v31.538h-24.7V21.316a7.5 7.5 0 0 0-7.5-7.5H263.5V7.501a7.5 7.5 0 1 0-15 0v6.315h-10.33a7.5 7.5 0 0 0-7.5 7.5v31.538h-24.7V21.316a7.5 7.5 0 0 0-7.5-7.5h-10.335V7.501a7.5 7.5 0 1 0-15 0v6.315H162.8a7.5 7.5 0 0 0-7.5 7.5v31.538h-24.7V21.316a7.5 7.5 0 0 0-7.5-7.5h-10.331V7.501a7.5 7.5 0 1 0-15 0v6.315H87.43a7.5 7.5 0 0 0-7.5 7.5v31.538H60.353a7.5 7.5 0 0 0-7.5 7.5v19.582H21.31a7.5 7.5 0 0 0-7.5 7.5v10.335H7.5a7.5 7.5 0 1 0 0 15h6.31v10.336a7.5 7.5 0 0 0 7.5 7.5h31.543v24.689H21.31a7.5 7.5 0 0 0-7.5 7.5v10.34H7.5a7.5 7.5 0 1 0 0 15h6.31v10.331a7.5 7.5 0 0 0 7.5 7.5h31.543v24.699H21.31a7.5 7.5 0 0 0-7.5 7.5v10.335H7.5a7.5 7.5 0 1 0 0 15h6.31v10.335a7.5 7.5 0 0 0 7.5 7.5h31.543v24.7H21.31a7.5 7.5 0 0 0-7.5 7.5v10.331H7.5a7.5 7.5 0 1 0 0 15h6.31v10.339a7.5 7.5 0 0 0 7.5 7.5h31.543v24.69H21.31a7.5 7.5 0 0 0-7.5 7.5v10.336H7.5a7.5 7.5 0 1 0 0 15h6.31v10.334a7.5 7.5 0 0 0 7.5 7.5h31.543v19.582a7.5 7.5 0 0 0 7.5 7.5H79.93v31.538a7.5 7.5 0 0 0 7.5 7.5h10.339v6.314a7.5 7.5 0 1 0 15 0v-6.314H123.1a7.5 7.5 0 0 0 7.5-7.5v-31.538h24.7v31.538a7.5 7.5 0 0 0 7.5 7.5h10.335v6.314a7.5 7.5 0 1 0 15 0v-6.314h10.335a7.5 7.5 0 0 0 7.5-7.5v-31.538h24.7v31.538a7.5 7.5 0 0 0 7.5 7.5h10.33v6.314a7.5 7.5 0 1 0 15 0v-6.314h10.33a7.5 7.5 0 0 0 7.5-7.5v-31.538h24.7v31.538a7.5 7.5 0 0 0 7.5 7.5h10.335v6.314a7.5 7.5 0 1 0 15 0v-6.314H349.2a7.5 7.5 0 0 0 7.5-7.5v-31.538h24.7v31.538a7.5 7.5 0 0 0 7.5 7.5h10.331v6.314a7.5 7.5 0 1 0 15 0v-6.314h10.339a7.5 7.5 0 0 0 7.5-7.5v-31.538h19.577a7.5 7.5 0 0 0 7.5-7.5v-19.582h31.543a7.5 7.5 0 0 0 7.5-7.5v-10.334h6.31a7.5 7.5 0 1 0 0-15h-6.31v-10.336a7.5 7.5 0 0 0-7.5-7.5h-31.543v-24.69h31.543a7.5 7.5 0 0 0 7.5-7.5v-10.339h6.31a7.5 7.5 0 1 0 0-15h-6.31v-10.331a7.5 7.5 0 0 0-7.5-7.5h-31.543v-24.7h31.543a7.5 7.5 0 0 0 7.5-7.5V263.5h6.31a7.5 7.5 0 1 0 0-15h-6.31v-10.335a7.5 7.5 0 0 0-7.5-7.5h-31.543v-24.699l31.543.001zm-7.5-35.671v20.671h-24.043v-20.671h24.043zm0-75.359v20.67h-24.043v-20.67h24.043zM396.4 28.816h20.67v24.038H396.4V28.816zm-75.37 0h20.67v24.038h-20.67V28.816zm-75.36 0h20.66v24.038h-20.66V28.816zm-75.37 0h20.67v24.038H170.3V28.816zm-75.37 0h20.67v24.038H94.93V28.816zm-66.12 86.79v-20.67h24.043v20.67H28.81zm0 75.361v-20.671h24.043v20.671H28.81zm0 75.369v-20.67h24.043v20.67H28.81zm0 75.37v-20.67h24.043v20.67H28.81zm0 75.359v-20.67h24.043v20.67H28.81zm86.79 66.122H94.93v-24.038h20.67v24.038zm75.37 0H170.3v-24.038h20.67v24.038zm75.36 0h-20.66v-24.038h20.66v24.038zm75.37 0h-20.67v-24.038h20.67v24.038zm75.37 0H396.4v-24.038h20.67v24.038zm27.077-39.039H67.853V67.854h376.295l-.001 376.293zm39.043-47.752v20.67h-24.043v-20.67h24.043zm0-75.36v20.67h-24.043v-20.67h24.043zm0-75.371v20.67h-24.043v-20.67h24.043zM102.451 417.049h307.098a7.5 7.5 0 0 0 7.5-7.5v-48.024a7.5 7.5 0 1 0-15 0v40.524H109.951V230.57a7.5 7.5 0 1 0-15 0v178.979a7.5 7.5 0 0 0 7.5 7.5zm0-208.41a7.5 7.5 0 0 0 7.5-7.5v-91.186h292.098v221.414a7.5 7.5 0 1 0 15 0V102.453a7.5 7.5 0 0 0-7.5-7.5H102.451a7.5 7.5 0 0 0-7.5 7.5v98.686a7.5 7.5 0 0 0 7.5 7.5zm230.017-54.875c3.106 8.853 11.542 15.221 21.443 15.221 12.528 0 22.721-10.192 22.721-22.721s-10.192-22.721-22.721-22.721c-9.901 0-18.337 6.368-21.443 15.221h-24.994a7.5 7.5 0 0 0-7.5 7.5V358.24H184.757v-25.699h19.203a7.5 7.5 0 0 0 7.5-7.5v-15.44h59.247a7.5 7.5 0 0 0 7.5-7.5V159.023a7.5 7.5 0 0 0-7.5-7.5H211.46v-11.455a7.5 7.5 0 0 0-7.5-7.5h-53.406a7.5 7.5 0 0 0-7.5 7.5v14.957a7.5 7.5 0 1 0 15 0v-7.457h38.406v94.738h-38.406v-59.283a7.5 7.5 0 1 0-15 0v66.783a7.5 7.5 0 0 0 7.5 7.5h53.406a7.5 7.5 0 0 0 7.5-7.5v-83.283h5.929v128.075h-5.929V279.16a7.5 7.5 0 0 0-7.5-7.5h-53.406a7.5 7.5 0 0 0-7.5 7.5v45.88a7.5 7.5 0 0 0 7.5 7.5h19.203v33.199a7.5 7.5 0 0 0 7.5 7.5h155.212c3.106 8.852 11.542 15.22 21.443 15.22 12.528 0 22.721-10.192 22.721-22.72s-10.192-22.721-22.721-22.721c-9.901 0-18.337 6.368-21.443 15.221h-17.494V318.37h17.494c3.106 8.853 11.542 15.221 21.443 15.221 12.528 0 22.721-10.192 22.721-22.721s-10.192-22.721-22.721-22.721c-9.901 0-18.337 6.368-21.443 15.221h-17.494v-39.868h17.494c3.106 8.853 11.542 15.22 21.443 15.22 12.528 0 22.721-10.192 22.721-22.721s-10.192-22.72-22.721-22.72c-9.901 0-18.337 6.368-21.443 15.221h-17.493v-39.869h17.494c3.106 8.852 11.542 15.22 21.443 15.22 12.528 0 22.721-10.192 22.721-22.72s-10.192-22.721-22.721-22.721c-9.901 0-18.337 6.368-21.443 15.221h-17.494v-39.869h17.492zm21.443-15.221c4.257 0 7.721 3.464 7.721 7.721s-3.464 7.721-7.721 7.721-7.721-3.464-7.721-7.721 3.464-7.721 7.721-7.721zm-90.704 156.056h-7.626V166.523h7.626v128.076zm-30.818-128.076h8.192v128.075h-8.192V166.523zm-74.335 120.136h38.406v30.88h-38.406v-30.88zm195.857 16.489c4.257 0 7.721 3.464 7.721 7.721s-3.464 7.721-7.721 7.721-7.721-3.464-7.721-7.721 3.464-7.721 7.721-7.721zm0-54.867a7.73 7.73 0 0 1 7.721 7.72c0 4.257-3.464 7.721-7.721 7.721s-7.721-3.464-7.721-7.721a7.73 7.73 0 0 1 7.721-7.72zm0-54.87c4.257 0 7.721 3.464 7.721 7.721a7.73 7.73 0 0 1-7.721 7.72 7.73 7.73 0 0 1-7.721-7.72c0-4.257 3.464-7.721 7.721-7.721zm0 164.607c4.257 0 7.721 3.464 7.721 7.721a7.73 7.73 0 0 1-7.721 7.72 7.73 7.73 0 0 1-7.721-7.72c0-4.256 3.464-7.721 7.721-7.721z"/></svg>