<svg id="Layer_1" enable-background="new 0 0 50 50" height="512" viewBox="0 0 50 50" width="512" xmlns="http://www.w3.org/2000/svg"><g><g><g><g><g><path d="m11.753 22.1734.0079 11.3058 8.5262-4.9226-.0079-11.3058z" fill="#242424"/></g><g><path d="m3.2779 17.2482.0079 11.3059 8.4751 4.9251-.0079-11.3058z" fill="#2F2F2F"/></g><g><path d="m3.2785 17.2459 8.477 4.9253 8.5248-4.9183-8.477-4.925z" fill="#3C3C3C"/></g></g><g><g><g><path d="m11.756 18.7839.0071 2.499 7.6531-4.4185-.0071-2.499z" fill="#242424"/></g><g><path d="m4.1488 14.3631.0071 2.499 7.6072 4.4208-.0071-2.499z" fill="#242424"/></g></g><path d="m11.753 16.3825.0079 3.6521 8.5262-4.9226-.0079-3.6521z" fill="#242424"/><path d="m3.2779 11.4573.0079 3.6521 8.4751 4.9252-.0079-3.6521z" fill="#2F2F2F"/><path d="m3.2785 11.4549 8.477 4.9253 8.5248-4.9183-8.477-4.925z" fill="#3C3C3C"/><g><path d="m11.7555 14.8293-5.7925-3.3674 5.8335-3.3744 5.7994 3.3674z" fill="#242424"/></g><g><g><path d="m5.4714 14.2412-.0018.6436-.5602-.3234.0018-.6437z" fill="#D03034"/></g><g><path d="m6.6399 14.9158-.0018.6437-.5602-.3235.0018-.6436z" fill="#D03034"/></g><g><path d="m7.8084 15.5905-.0018.6436-.5602-.3234.0018-.6437z" fill="#D03034"/></g><g><path d="m8.9769 16.2651-.0018.6436-.5763-.3327.0019-.6436z" fill="#D03034"/></g><g><path d="m10.1294 16.9305-.0018.6436-.5602-.3234.0018-.6437z" fill="#D03034"/></g></g><g><g><path d="m18.068 14.2425.0018.6436.5603-.3234-.0019-.6437z" fill="#fff"/></g><g><path d="m16.8995 14.9171.0018.6437.5602-.3235-.0018-.6436z" fill="#fff"/></g><g><path d="m15.731 15.5918.0018.6436.5602-.3234-.0018-.6437z" fill="#fff"/></g><g><path d="m14.5625 16.2664.0018.6436.5763-.3327-.0018-.6436z" fill="#fff"/></g><g><path d="m13.41 16.9318.0018.6436.5603-.3234-.0019-.6437z" fill="#fff"/></g></g></g><g><g><g><path d="m11.756 13.2469.0071 2.499 7.6531-4.4185-.0071-2.499z" fill="#242424"/></g><g><path d="m4.1488 8.8261.0071 2.499 7.6072 4.4208-.0071-2.499z" fill="#242424"/></g></g><path d="m11.753 10.8455.0079 3.6521 8.5262-4.9226-.0079-3.6521z" fill="#242424"/><path d="m3.2779 5.9203.0079 3.6521 8.4751 4.9252-.0079-3.6521z" fill="#2F2F2F"/><path d="m3.2785 5.918 8.477 4.9253 8.5248-4.9183-8.477-4.925z" fill="#3C3C3C"/><g><g><path d="m5.4714 8.7042-.0018.6437-.5602-.3235.0018-.6436z" fill="#D03034"/></g><g><path d="m6.6399 9.3789-.0018.6436-.5602-.3235.0018-.6436z" fill="#D03034"/></g><g><path d="m7.8084 10.0535-.0018.6436-.5602-.3234.0018-.6436z" fill="#D03034"/></g><g><path d="m8.9769 10.7281-.0018.6437-.5763-.3327.0019-.6437z" fill="#D03034"/></g><g><path d="m10.1294 11.3935-.0018.6437-.5602-.3235.0018-.6436z" fill="#D03034"/></g></g><g><g><path d="m18.068 8.7055.0018.6437.5603-.3235-.0019-.6436z" fill="#fff"/></g><g><path d="m16.8995 9.3802.0018.6436.5602-.3235-.0018-.6436z" fill="#fff"/></g><g><path d="m15.731 10.0548.0018.6436.5602-.3234-.0018-.6436z" fill="#fff"/></g><g><path d="m14.5625 10.7294.0018.6437.5763-.3327-.0018-.6437z" fill="#fff"/></g><g><path d="m13.41 11.3948.0018.6437.5603-.3235-.0019-.6436z" fill="#fff"/></g></g></g></g><g><g><g><path d="m24.9705 29.8639.0079 11.3058 8.5262-4.9226-.0079-11.3058z" fill="#242424"/></g><g><path d="m16.4954 24.9387.0079 11.3058 8.4751 4.9252-.0079-11.3058z" fill="#2F2F2F"/></g><g><path d="m16.496 24.9364 8.477 4.9253 8.5248-4.9183-8.477-4.925z" fill="#3C3C3C"/></g></g><g><g><g><path d="m24.9735 26.4744.0071 2.499 7.6531-4.4185-.0071-2.499z" fill="#242424"/></g><g><path d="m17.3663 22.0536.0071 2.499 7.6072 4.4208-.0071-2.499z" fill="#242424"/></g></g><path d="m24.9705 24.0729.0079 3.6522 8.5262-4.9226-.0079-3.6521z" fill="#242424"/><path d="m16.4954 19.1478.0079 3.6521 8.4751 4.9252-.0079-3.6522z" fill="#2F2F2F"/><path d="m16.496 19.1454 8.477 4.9253 8.5248-4.9183-8.477-4.925z" fill="#3C3C3C"/><g><path d="m24.973 22.5198-5.7925-3.3674 5.8335-3.3744 5.7994 3.3674z" fill="#242424"/></g><g><g><path d="m18.6889 21.9317-.0018.6436-.5602-.3234.0018-.6437z" fill="#D03034"/></g><g><path d="m19.8575 22.6063-.0019.6437-.5602-.3235.0018-.6436z" fill="#D03034"/></g><g><path d="m21.0259 23.2809-.0018.6437-.5602-.3234.0018-.6437z" fill="#D03034"/></g><g><path d="m22.1944 23.9556-.0018.6436-.5762-.3327.0018-.6436z" fill="#D03034"/></g><g><path d="m23.3469 24.621-.0018.6436-.5602-.3234.0018-.6437z" fill="#D03034"/></g></g><g><g><path d="m31.2855 21.933.0018.6436.5603-.3234-.0018-.6437z" fill="#fff"/></g><g><path d="m30.117 22.6076.0018.6437.5603-.3235-.0019-.6436z" fill="#fff"/></g><g><path d="m28.9485 23.2822.0019.6437.5601-.3234-.0018-.6437z" fill="#fff"/></g><g><path d="m27.78 23.9569.0018.6436.5763-.3327-.0018-.6436z" fill="#fff"/></g><g><path d="m26.6275 24.6223.0018.6436.5603-.3234-.0018-.6437z" fill="#fff"/></g></g></g><g><g><g><path d="m24.9735 20.9374.0071 2.499 7.6531-4.4185-.0071-2.499z" fill="#242424"/></g><g><path d="m17.3663 16.5166.0071 2.499 7.6072 4.4208-.0071-2.499z" fill="#242424"/></g></g><path d="m24.9705 18.536.0079 3.6521 8.5262-4.9226-.0079-3.6521z" fill="#242424"/><path d="m16.4954 13.6108.0079 3.6521 8.4751 4.9252-.0079-3.6521z" fill="#2F2F2F"/><path d="m16.496 13.6084 8.477 4.9253 8.5248-4.9183-8.477-4.925z" fill="#3C3C3C"/><g><g><path d="m18.6889 16.3947-.0018.6436-.5602-.3234.0018-.6436z" fill="#D03034"/></g><g><path d="m19.8575 17.0694-.0019.6436-.5602-.3235.0018-.6436z" fill="#D03034"/></g><g><path d="m21.0259 17.744-.0018.6436-.5602-.3234.0018-.6437z" fill="#D03034"/></g><g><path d="m22.1944 18.4186-.0018.6436-.5762-.3327.0018-.6436z" fill="#D03034"/></g><g><path d="m23.3469 19.084-.0018.6436-.5602-.3234.0018-.6436z" fill="#D03034"/></g></g><g><g><path d="m31.2855 16.396.0018.6436.5603-.3234-.0018-.6436z" fill="#fff"/></g><g><path d="m30.117 17.0707.0018.6436.5603-.3235-.0019-.6436z" fill="#fff"/></g><g><path d="m28.9485 17.7453.0019.6436.5601-.3234-.0018-.6437z" fill="#fff"/></g><g><path d="m27.78 18.4199.0018.6436.5763-.3327-.0018-.6436z" fill="#fff"/></g><g><path d="m26.6275 19.0853.0018.6436.5603-.3234-.0018-.6436z" fill="#fff"/></g></g></g></g><g><g><g><path d="m38.188 37.5544.0079 11.3058 8.5262-4.9226-.0079-11.3058z" fill="#242424"/></g><g><path d="m29.7129 32.6292.0079 11.3058 8.4751 4.9252-.0079-11.3058z" fill="#2F2F2F"/></g><g><path d="m29.7135 32.6269 8.477 4.9253 8.5248-4.9183-8.477-4.925z" fill="#3C3C3C"/></g></g><g><g><g><path d="m38.191 34.1649.0071 2.499 7.6531-4.4185-.0071-2.499z" fill="#242424"/></g><g><path d="m30.5838 29.7441.0071 2.499 7.6072 4.4208-.0071-2.499z" fill="#242424"/></g></g><path d="m38.188 31.7634.0079 3.6522 8.5262-4.9226-.0079-3.6522z" fill="#242424"/><path d="m29.7129 26.8382.0079 3.6522 8.4751 4.9252-.0079-3.6522z" fill="#2F2F2F"/><path d="m29.7135 26.8359 8.477 4.9253 8.5248-4.9183-8.477-4.925z" fill="#3C3C3C"/><g><path d="m38.1905 30.2103-5.7925-3.3674 5.8335-3.3744 5.7994 3.3674z" fill="#242424"/></g><g><g><path d="m31.9065 29.6222-.0019.6436-.5602-.3234.0018-.6437z" fill="#D03034"/></g><g><path d="m33.075 30.2968-.0019.6437-.5602-.3235.0018-.6436z" fill="#D03034"/></g><g><path d="m34.2434 30.9714-.0018.6437-.5602-.3235.0019-.6436z" fill="#D03034"/></g><g><path d="m35.412 31.6461-.0019.6436-.5762-.3327.0018-.6436z" fill="#D03034"/></g><g><path d="m36.5645 32.3115-.0019.6436-.5602-.3234.0018-.6437z" fill="#D03034"/></g></g><g><g><path d="m44.503 29.6235.0019.6436.5602-.3234-.0018-.6437z" fill="#fff"/></g><g><path d="m43.3345 30.2981.0018.6437.5603-.3235-.0018-.6436z" fill="#fff"/></g><g><path d="m42.166 30.9727.0019.6437.5602-.3235-.0019-.6436z" fill="#fff"/></g><g><path d="m40.9975 31.6474.0019.6436.5762-.3327-.0018-.6436z" fill="#fff"/></g><g><path d="m39.845 32.3128.0019.6436.5602-.3234-.0018-.6437z" fill="#fff"/></g></g></g><g><g><g><path d="m38.191 28.6279.0071 2.499 7.6531-4.4185-.0071-2.499z" fill="#242424"/></g><g><path d="m30.5838 24.2071.0071 2.499 7.6072 4.4208-.0071-2.499z" fill="#242424"/></g></g><path d="m38.188 26.2265.0079 3.6521 8.5262-4.9226-.0079-3.6521z" fill="#242424"/><path d="m29.7129 21.3013.0079 3.6521 8.4751 4.9252-.0079-3.6521z" fill="#2F2F2F"/><path d="m29.7135 21.2989 8.477 4.9253 8.5248-4.9183-8.477-4.925z" fill="#3C3C3C"/><g><g><path d="m31.9065 24.0852-.0019.6436-.5602-.3234.0018-.6437z" fill="#D03034"/></g><g><path d="m33.075 24.7598-.0019.6437-.5602-.3235.0018-.6436z" fill="#D03034"/></g><g><path d="m34.2434 25.4345-.0018.6436-.5602-.3234.0019-.6437z" fill="#D03034"/></g><g><path d="m35.412 26.1091-.0019.6436-.5762-.3327.0018-.6436z" fill="#D03034"/></g><g><path d="m36.5645 26.7745-.0019.6436-.5602-.3234.0018-.6437z" fill="#D03034"/></g></g><g><g><path d="m44.503 24.0865.0019.6436.5602-.3234-.0018-.6437z" fill="#fff"/></g><g><path d="m43.3345 24.7611.0018.6437.5603-.3235-.0018-.6436z" fill="#fff"/></g><g><path d="m42.166 25.4358.0019.6436.5602-.3234-.0019-.6437z" fill="#fff"/></g><g><path d="m40.9975 26.1104.0019.6436.5762-.3327-.0018-.6436z" fill="#fff"/></g><g><path d="m39.845 26.7758.0019.6436.5602-.3234-.0018-.6437z" fill="#fff"/></g></g></g></g><g opacity=".6"><g enable-background="new"><g><path d="m29.2908 33.022-19.1406-11.0364c-.1533-.0889-.2914-.0962-.3933-.0414l-.8499.4726c.1039-.0582.242-.0509.3953.038l19.1388 11.04c.3064.1778.5529.6078.5474.9599l-.2123 14.1446c-.003.1805-.0694.306-.1733.3641l.8479-.4693c.1039-.0582.1703-.1836.1733-.3641l.2123-14.1446c.004-.3575-.239-.7855-.5456-.9634z" fill="#ff3034"/></g><path d="m8.7361 22.7744c.0053-.3546.2599-.4959.5677-.3185l19.1382 11.0386c.3078.1774.5513.6057.5459.9606l-.2115 14.1463c-.0053.3549-.2574.5004-.5651.323l-19.1382-11.0387c-.3078-.1774-.5538-.6102-.5485-.9647z" fill="#d03034"/></g></g><g><g><path d="m13.6197 38.0233-.0019.6633-3.5827-2.0685.0019-.6633z" fill="#fff"/></g><g><path d="m11.7532 35.6776-.0018.6588-1.7127-.9888.0019-.6588z" fill="#fff"/></g><g><path d="m13.6289 34.7763-.0018.6588-3.5828-2.0685.0019-.6588z" fill="#fff"/></g><g><path d="m11.7625 32.4263-.0019.6631-1.7127-.9888.0019-.6631z" fill="#fff"/></g><g><path d="m13.6381 31.5295-.0018.6588-3.5828-2.0685.0019-.6588z" fill="#fff"/></g><g><path d="m11.7717 29.1793-.0019.6589-1.7127-.9889.0019-.6588z" fill="#fff"/></g><g><path d="m13.6474 28.278-.0019.6633-3.5828-2.0685.0019-.6633z" fill="#fff"/></g><g><path d="m11.7809 25.9323-.0019.6588-1.7127-.9888.0019-.6588z" fill="#fff"/></g><g enable-background="new"><g><path d="m27.5759 46.081-11.3403-6.5477-.0019.6638 11.3422 6.5482z" fill="#fff"/></g><g><path d="m27.5759 44.8129-11.3367-6.5452-.0019.6587 11.3386 6.5462z" fill="#fff"/></g><g><path d="m27.5759 42.8286-11.3311-6.5422-.0019.6593 11.333 6.5426z" fill="#fff"/></g><g><path d="m27.5759 41.5564-11.3275-6.5402-.0019.6633 11.3294 6.5407z" fill="#fff"/></g><g><path d="m27.5759 39.5766-11.3219-6.5371-.0019.6592 11.3238 6.5377z" fill="#fff"/></g><g><path d="m27.5759 38.3039-11.3183-6.5346-.0019.6588 11.3202 6.5356z" fill="#fff"/></g><g><path d="m27.5759 36.3196-11.3127-6.5316-.0019.6638 11.3146 6.5321z" fill="#fff"/></g><g><path d="m27.5759 35.0515-11.3091-6.5291-.0019.6588 11.311 6.53z" fill="#fff"/></g></g></g><path d="m25.0209 10.2417 5.7925 3.3672-5.8335 3.3745-5.7994-3.3672z" fill="#D03034"/><path d="m11.8033 2.5514 5.7925 3.3672-5.8335 3.3745-5.7993-3.3672z" fill="#D03034"/><path d="m38.1905 24.6733-5.7925-3.3674 5.8335-3.3744 5.7994 3.3674z" fill="#D03034"/><g><path d="m26.7322 14.2972.2908.2872-.4212.236-.4856-.1783c-.2267.0816-.4706.136-.7239.1631l-.1447.322-.5879-.0054-.1276-.3253c-.25-.0337-.4926-.0935-.7147-.1805l-.4948.1675-.407-.2458.3064-.2806c-.1415-.1295-.2362-.2731-.2859-.4188l-.5545-.0859.0094-.3394.5593-.0718c.0555-.1457.1598-.2871.3074-.4144l-.2908-.2872.4231-.235.4855.1784c.2249-.0827.4725-.1371.7239-.1653l.1466-.3209.5859.0065.1258.3241c.2499.0337.4944.0946.7146.1806l.4948-.1675.409.2447-.3064.2806c.1416.1316.2381.2742.2859.421l.5563.0849-.0094.3394-.5611.0729c-.0552.1456-.1596.2849-.3092.4132zm-2.4404-.2747c.3838.2216 1.0064.2264 1.3985.0072.3969-.2219.408-.5885.0236-.8191-.0046-.0028-.0091-.0055-.0137-.0082-.3855-.2226-1.0064-.2263-1.3985-.0071-.3988.2208-.4098.5874-.0236.8191.0045.0028.0091.0054.0137.0081" fill="#fff"/></g><g><path d="m13.5147 6.6068.2908.2872-.4212.236-.4856-.1783c-.2267.0816-.4706.136-.7239.1631l-.1447.322-.5879-.0054-.1275-.3254c-.25-.0337-.4926-.0935-.7147-.1805l-.4948.1675-.407-.2458.3064-.2806c-.1415-.1295-.2362-.2731-.2859-.4189l-.5545-.0859.0094-.3394.5593-.0718c.0555-.1457.1598-.2871.3074-.4144l-.2908-.2872.4231-.235.4855.1784c.2249-.0827.4725-.1371.7239-.1653l.1466-.3209.5859.0065.1258.3241c.2499.0337.4944.0946.7146.1806l.4948-.1675.409.2447-.3064.2806c.1416.1316.2381.2742.2859.421l.5563.0848-.0094.3394-.5611.0729c-.0553.1458-.1598.2851-.3093.4135zm-2.4404-.2748c.3838.2216 1.0064.2264 1.3985.0072.3969-.2219.408-.5885.0236-.8191-.0046-.0028-.0091-.0055-.0137-.0082-.3855-.2226-1.0064-.2263-1.3985-.0071-.3988.2208-.4098.5874-.0236.8191.0045.0028.0091.0055.0137.0081" fill="#fff"/></g><g><path d="m39.9497 21.9877.2908.2872-.4212.236-.4856-.1784c-.2267.0816-.4706.136-.7239.1631l-.1447.322-.5879-.0054-.1276-.3253c-.25-.0337-.4926-.0935-.7147-.1805l-.4948.1675-.407-.2458.3064-.2806c-.1415-.1295-.2362-.2731-.2859-.4188l-.5545-.0859.0094-.3394.5593-.0718c.0555-.1457.1598-.2871.3074-.4144l-.2907-.2872.4231-.235.4855.1784c.2249-.0827.4725-.1371.7239-.1653l.1466-.3209.5859.0065.1258.3241c.2499.0337.4944.0946.7146.1806l.4948-.1675.409.2447-.3064.2806c.1416.1316.2381.2742.2859.421l.5563.0849-.0094.3394-.5611.0729c-.0553.1457-.1597.285-.3093.4133zm-2.4404-.2747c.3838.2216 1.0064.2264 1.3985.0072.3969-.2219.408-.5885.0236-.8191-.0046-.0028-.0091-.0055-.0137-.0082-.3855-.2226-1.0064-.2263-1.3985-.0071-.3988.2208-.4098.5874-.0236.8191.0045.0028.0091.0054.0137.0081" fill="#fff"/></g></g></g></svg>