<svg xmlns="http://www.w3.org/2000/svg" height="512" viewBox="0 0 549.193 549.193" width="512" fill="white"  ><path d="M274.597 137.298c-112.094 0-225.562-23.579-225.562-68.649S162.502 0 274.597 0s225.562 23.579 225.562 68.649-113.468 68.649-225.562 68.649zm0-117.684c-125.719 0-205.947 29.038-205.947 49.035s80.228 49.035 205.947 49.035 205.947-29.038 205.947-49.035-80.228-49.035-205.947-49.035zm0 529.579c-112.094 0-225.562-23.579-225.562-68.649V343.246a9.81 9.81 0 0 1 9.807-9.807 9.81 9.81 0 0 1 9.807 9.807v137.298c0 19.997 80.228 49.035 205.947 49.035s205.947-29.038 205.947-49.035V343.246a9.81 9.81 0 0 1 9.807-9.807 9.81 9.81 0 0 1 9.807 9.807v137.298c.001 45.07-113.466 68.649-225.56 68.649z"/><path d="M274.597 411.895c-112.094 0-225.562-23.579-225.562-68.649V205.947a9.81 9.81 0 0 1 9.807-9.807 9.81 9.81 0 0 1 9.807 9.807v137.298c0 19.997 80.228 49.035 205.947 49.035s205.947-29.038 205.947-49.035V205.947a9.81 9.81 0 0 1 9.807-9.807 9.81 9.81 0 0 1 9.807 9.807v137.298c.001 45.071-113.466 68.65-225.56 68.65z"/><path d="M274.597 274.597c-112.094 0-225.562-23.579-225.562-68.649V68.649a9.81 9.81 0 0 1 9.807-9.807 9.81 9.81 0 0 1 9.807 9.807v137.298c0 19.998 80.228 49.035 205.947 49.035s205.947-29.038 205.947-49.035V68.649a9.81 9.81 0 0 1 9.807-9.807 9.81 9.81 0 0 1 9.807 9.807v137.298c.001 45.071-113.466 68.65-225.56 68.65z"/><circle cx="451.123" cy="166.719" r="9.807"/><circle cx="451.123" cy="304.018" r="9.807"/><circle cx="451.123" cy="441.316" r="9.807"/></svg>