<svg xmlns="http://www.w3.org/2000/svg" width="128" height="128"  ><defs><filter id="A"><feGaussianBlur stdDeviation="4"/></filter></defs><rect width="104" height="104" ry="8.5" x="12" y="12" filter="url(#A)"/><rect width="108" height="108" ry="8.5" x="10" y="10" fill="#1194f0"/><path d="M61.14 21.37c-9.1.1-18 5.8-21.66 14.2-3.41 6.9-3.21 15.6-2.43 22.3s2.36 12.1 6.85 16.2c4.64 4.9 11.54 7.1 18.14 7.3 5.5-.5 12.2-2 14.6-7.6-.3 4.3 1 8.9-.7 13-4 7.3-14.8 9.3-21.3 4.5-2.9-2-3.6-5.6-4.2-8.7H36.38c-.64 10 6.24 19.33 15.46 22.63 10.5 3.8 23.2 2.6 32.1-4.4 5.4-4.23 8.6-11.03 8.5-17.83v-59.8c-5.1-.1-10.2 0-15.3 0l.1 7.3c-2.5-5.4-8.4-8.9-14.3-9.1h-1.8zm3.8 13.4c4.4 0 8.8 2.5 10.5 6.7 2.4 6.2 2.8 13.3.5 19.6-2 4.2-6 8.2-11 7.7-6.4.5-11-5.7-12.1-11.4-.9-5.3-.8-11.1 1.5-16.1 1.9-4.3 6.1-6.4 10.6-6.5z" fill="#fff"/></svg>