<svg xmlns="http://www.w3.org/2000/svg" height="512" viewBox="0 0 60 60" width="512"  fill="#fff" ><path d="M35.243 33.13a1 1 0 1 0 .658 1.889c8.306-2.878 13.319-11.334 11.859-20.002A18.01 18.01 0 0 0 30.005.002c-8.79 0-16.296 6.347-17.755 15.015a18.01 18.01 0 0 0 11.859 20.002 1 1 0 1 0 .657-1.89A15.96 15.96 0 0 1 20 30.479V29.39a7.53 7.53 0 0 1 4.829-7.036c3.098 2.195 7.244 2.195 10.342 0A7.53 7.53 0 0 1 40 29.39v1.093a15.96 15.96 0 0 1-4.757 2.647zM23 15a7 7 0 1 1 7 7 7.01 7.01 0 0 1-7-7zm13.8 5.873a9 9 0 1 0-13.608 0c-2.945 1.505-4.898 4.43-5.16 7.727-5.701-6.425-5.312-16.204.881-22.156s15.98-5.951 22.173 0 6.582 15.731.881 22.156c-.263-3.299-2.22-6.224-5.168-7.727zM21.4 59.611c.611.451 1.427.514 2.1.161l6.507-3.381 6.506 3.382a2 2 0 0 0 2.893-2.117l-1.236-7.132 5.23-5.041a2 2 0 0 0-1.1-3.419l-7.26-1.043-3.24-6.513c-.336-.682-1.033-1.112-1.793-1.108a1.99 1.99 0 0 0-1.789 1.105l-3.258 6.516-7.244 1.042a2 2 0 0 0-1.1 3.42l5.232 5.041-1.237 7.132a1.99 1.99 0 0 0 .789 1.955zM18 44.043l7.762-1.117a1 1 0 0 0 .752-.542l3.492-6.984 3.477 6.982a1 1 0 0 0 .753.544l7.778 1.117-5.614 5.409a1 1 0 0 0-.291.891L37.436 58l-6.967-3.621a1 1 0 0 0-.922 0L22.579 58l1.327-7.655a1 1 0 0 0-.291-.891zm-13.3.179l-.977 5.649A1.81 1.81 0 0 0 5.5 52c.292 0 .58-.071.839-.206l5.161-2.686 5.158 2.692a1 1 0 1 0 .924-1.774l-5.62-2.93a1 1 0 0 0-.924 0l-5.277 2.749 1-5.8a1 1 0 0 0-.291-.891l-4.247-4.1L8.1 38.21a1 1 0 0 0 .752-.543l2.648-5.294 2.638 5.293a1 1 0 0 0 .754.544l6.279.9a1 1 0 1 0 .283-1.98l-5.76-.825-2.577-5.172a1.8 1.8 0 0 0-1.621-1h-.006a1.78 1.78 0 0 0-1.6.994L7.3 36.305l-5.743.824a1.8 1.8 0 0 0-1 3.091zm55.21-5.866a1.78 1.78 0 0 0-1.46-1.226l-5.75-.825-2.584-5.177c-.299-.611-.92-.999-1.6-1h-.006a1.8 1.8 0 0 0-1.622 1l-2.576 5.171-5.761.825a1 1 0 1 0 .283 1.98l6.28-.9a1 1 0 0 0 .754-.544l2.632-5.287 2.643 5.294a1 1 0 0 0 .752.543l5.874.843-4.247 4.1a1 1 0 0 0-.291.891l1.005 5.8-5.277-2.752a1 1 0 0 0-.924 0l-5.62 2.93a1 1 0 0 0 .924 1.774l5.161-2.688 5.16 2.692a1.81 1.81 0 0 0 2.614-1.919l-.974-5.659 4.146-4a1.8 1.8 0 0 0 .464-1.866zM24.5 47.139a1.02 1.02 0 0 0 .144-.011l3.761-.541a1 1 0 0 0 .752-.542l1.74-3.479a1.002 1.002 0 0 0-1.79-.9l-1.5 3.011-3.245.467a1 1 0 0 0 .142 1.99z"/></svg>