<svg xmlns="http://www.w3.org/2000/svg" viewBox="0 0 88.56 120.06">
  <defs>
    <style>
      .cls-13,.cls-14,.cls-9{fill:#dd3034}.cls-3{fill:#3c3c3c}.cls-4,.cls-8{fill:#2f2f2f}.cls-5{fill:#fff}.cls-6{fill:#131313}.cls-7{fill:#181818}.cls-8{opacity:.51}.cls-10,.cls-11,.cls-12{fill:#42e8e0}.cls-11,.cls-13{opacity:.1}.cls-12,.cls-14{opacity:.4}
    </style>
  </defs>
  <g id="Layer_2" data-name="Layer 2">
    <g id="_ÎÓÈ_1" data-name="—ÎÓÈ_1">
      <path fill="#dd3034" d="M44.28 120.06a4 4 0 01-2-.53L.82 95.58a.81.81 0 010-1.41l43.46-25.09.1.06 43.36 25a.82.82 0 010 1.41l-41.48 24a4 4 0 01-1.98.51zm0-50.52L1 94.52a.41.41 0 00-.21.36.42.42 0 00.21.36l41.47 23.94a3.6 3.6 0 003.58 0l41.49-23.94a.41.41 0 00.2-.36.4.4 0 00-.2-.36z" opacity=".7"/>
      <path fill="#6b5e9a" d="M44.13 79.81a4.5 4.5 0 01-2.2-.51L24.2 69.07a1.65 1.65 0 01-.94-1.39 2.19 2.19 0 011.29-1.76l17-9.83a5.61 5.61 0 015.05-.2l17.75 10.23a1.64 1.64 0 01.94 1.39A2.17 2.17 0 0164 69.27L47 79.1a5.85 5.85 0 01-2.87.71zm.29-24a5.41 5.41 0 00-2.64.66l-17 9.83a1.83 1.83 0 00-1.09 1.41 1.24 1.24 0 00.74 1L42.13 79a5.21 5.21 0 004.65-.2l17-9.84a1.8 1.8 0 001.08-1.41 1.27 1.27 0 00-.73-1l-17.7-10.31a4.09 4.09 0 00-2.01-.46z" opacity=".7"/>
      <path d="M44.28 99.99L0 74.43l44.28-25.57 44.28 25.57-44.28 25.56z" class="cls-3"/>
      <path d="M44.28 93.01L12.09 74.43l32.19-18.59 32.19 18.59-32.19 18.58z" class="cls-4"/>
      <path d="M44.28 57.1l31.1 17.96 1.09-.63-32.19-18.59-32.19 18.59 1.09.63 31.1-17.96z" class="cls-5"/>
      <path d="M88.56 74.43v14.49l-44.28 25.56V99.99l44.28-25.56z" class="cls-4"/>
      <path d="M0 74.43v14.49l44.28 25.56V99.99L0 74.43z" class="cls-6"/>
      <path d="M3 80.94v4.56l38.28 22.1v-4.56L3 80.94z" class="cls-7"/>
      <path d="M44.28 99.16L.72 74.01l-.72.42 44.28 25.56 44.28-25.56-.72-.42-43.56 25.15z" class="cls-5"/>
      <path d="M81.92 84.58v2.6l-31 17.89v-2.59l31-17.9z" class="cls-3"/>
      <path d="M.04 74.43v14.49l44.28 25.56V99.99L.04 74.43z" class="cls-8"/>
      <path d="M31.35 99.22l-8.01-4.63-.01.96 8.02 4.63v-.96zM22.18 93.94l-2.17-1.26v.96l2.17 1.25v-.95zM12 88.06L7.56 85.5v.95L12 89.02v-.96zM16.06 90.4l-3.22-1.85v.95l3.22 1.86v-.96zM19.07 92.14l-2.17-1.25v.95l2.17 1.26v-.96z" class="cls-9"/>
      <path d="M44.32 62.23l-1.4-.82 1.4-.81 1.41.81-1.41.82z" class="cls-10"/>
      <path d="M47.14 63.85l-1.41-.81 1.41-.81 1.4.81-1.4.81z" class="cls-11"/>
      <path d="M49.95 65.47l-1.41-.81 1.41-.81 1.4.81-1.4.81z" class="cls-12"/>
      <path d="M52.76 67.1l-1.41-.82 1.41-.81 1.41.81-1.41.82z" class="cls-10"/>
      <path d="M55.57 68.72l-1.4-.81 1.4-.81 1.41.81-1.41.81z" class="cls-12"/>
      <path d="M58.38 70.34l-1.4-.81 1.4-.81 1.41.81-1.41.81zM61.2 71.97l-1.41-.81 1.41-.82 1.4.82-1.4.81zM64.01 73.59l-1.41-.81 1.41-.81 1.4.81-1.4.81z" class="cls-10"/>
      <path d="M66.82 75.21l-1.41-.81 1.41-.81 1.41.81-1.41.81z" class="cls-11"/>
      <path d="M41.5 63.86l-1.41-.82 1.41-.81 1.41.81-1.41.82zM44.31 65.48l-1.4-.81 1.4-.81 1.41.81-1.41.81zM47.13 67.1l-1.41-.81 1.41-.81 1.4.81-1.4.81zM49.94 68.73l-1.41-.81 1.41-.82 1.4.82-1.4.81zM52.75 70.35l-1.41-.81 1.41-.81 1.41.81-1.41.81zM55.56 71.97l-1.4-.81 1.4-.81 1.41.81-1.41.81zM58.37 73.6l-1.4-.82 1.4-.81 1.41.81-1.41.82zM61.19 75.22l-1.41-.81 1.41-.81 1.4.81-1.4.81zM64 76.84l-1.41-.81 1.41-.81 1.4.81-1.4.81zM38.68 65.49l-1.41-.82 1.41-.81 1.4.81-1.4.82zM41.49 67.11l-1.41-.81 1.41-.81 1.41.81-1.41.81zM44.3 68.73l-1.4-.81 1.4-.81 1.41.81-1.41.81z" class="cls-10"/>
      <path d="M47.11 70.36l-1.4-.81 1.4-.82 1.41.82-1.41.81z" class="cls-11"/>
      <path d="M49.92 71.98l-1.4-.81 1.4-.81 1.41.81-1.41.81zM52.74 73.6l-1.41-.81 1.41-.81 1.4.81-1.4.81z" class="cls-12"/>
      <path d="M55.55 75.23l-1.41-.81 1.41-.82 1.4.82-1.4.81zM58.36 76.85l-1.4-.81 1.4-.81 1.41.81-1.41.81zM61.17 78.47l-1.4-.81 1.4-.81 1.41.81-1.41.81z" class="cls-10"/>
      <path d="M35.85 67.12l-1.4-.82 1.4-.81 1.41.81-1.41.82zM38.67 68.74l-1.41-.81 1.41-.81 1.4.81-1.4.81z" class="cls-12"/>
      <path d="M41.48 70.36l-1.41-.81 1.41-.81 1.4.81-1.4.81z" class="cls-11"/>
      <path d="M44.29 71.99l-1.41-.82 1.41-.81 1.41.81-1.41.82zM47.1 73.61l-1.4-.81 1.4-.81 1.41.81-1.41.81zM49.91 75.23l-1.4-.81 1.4-.81 1.41.81-1.41.81z" class="cls-10"/>
      <path d="M52.73 76.86l-1.41-.81 1.41-.82 1.4.82-1.4.81z" class="cls-12"/>
      <path d="M55.54 78.48l-1.41-.81 1.41-.81 1.4.81-1.4.81zM58.35 80.1l-1.41-.81 1.41-.81 1.41.81-1.41.81zM33.03 68.75l-1.41-.82 1.41-.81 1.41.81-1.41.82zM35.84 70.37l-1.4-.81 1.4-.81 1.41.81-1.41.81zM38.65 71.99l-1.4-.81 1.4-.81 1.41.81-1.41.81zM41.47 73.62l-1.41-.81 1.41-.82 1.4.82-1.4.81zM44.28 75.24l-1.41-.81 1.41-.81 1.4.81-1.4.81zM47.09 76.86l-1.4-.81 1.4-.81 1.41.81-1.41.81zM49.9 78.49l-1.4-.81 1.4-.82 1.41.82-1.41.81zM52.72 80.11l-1.41-.81 1.41-.81 1.4.81-1.4.81zM55.53 81.73l-1.41-.81 1.41-.81 1.4.81-1.4.81zM30.21 70.38l-1.41-.82 1.41-.81 1.4.81-1.4.82zM33.02 72l-1.41-.81 1.41-.81 1.4.81-1.4.81z" class="cls-10"/>
      <path d="M35.83 73.62l-1.41-.81 1.41-.81 1.41.81-1.41.81z" class="cls-12"/>
      <path d="M38.64 75.25l-1.4-.81 1.4-.82 1.41.82-1.41.81z" class="cls-10"/>
      <path d="M41.45 76.87l-1.4-.81 1.4-.81 1.41.81-1.41.81z" class="cls-11"/>
      <path d="M44.27 78.49l-1.41-.81 1.41-.81 1.4.81-1.4.81zM47.08 80.12l-1.41-.81 1.41-.82 1.4.82-1.4.81zM49.89 81.74l-1.41-.81 1.41-.81 1.41.81-1.41.81zM52.7 83.36l-1.4-.81 1.4-.81 1.41.81-1.41.81zM27.38 72.01l-1.4-.82 1.4-.81 1.41.81-1.41.82zM30.2 73.63l-1.41-.81 1.41-.81 1.4.81-1.4.81z" class="cls-10"/>
      <path d="M33.01 75.25l-1.41-.81 1.41-.81 1.4.81-1.4.81z" class="cls-12"/>
      <path d="M35.82 76.88l-1.41-.82 1.41-.81 1.41.81-1.41.82zM38.63 78.5l-1.4-.81 1.4-.81 1.41.81-1.41.81z" class="cls-10"/>
      <path d="M41.44 80.12l-1.4-.81 1.4-.81 1.41.81-1.41.81z" class="cls-11"/>
      <path d="M44.26 81.75l-1.41-.81 1.41-.82 1.4.82-1.4.81z" class="cls-12"/>
      <path d="M47.07 83.37l-1.41-.81 1.41-.81 1.4.81-1.4.81z" class="cls-10"/>
      <path d="M49.88 85l-1.41-.82 1.41-.81 1.41.81-1.41.82z" class="cls-11"/>
      <path d="M24.56 73.64l-1.41-.81 1.41-.82 1.41.82-1.41.81z" class="cls-10"/>
      <path d="M27.37 75.26l-1.4-.81 1.4-.81 1.41.81-1.41.81z" class="cls-12"/>
      <path d="M30.18 76.88l-1.4-.81 1.4-.81 1.41.81-1.41.81zM33 78.51l-1.41-.82 1.41-.81 1.4.81-1.4.82zM35.81 80.13l-1.41-.81 1.41-.81 1.4.81-1.4.81zM38.62 81.75l-1.41-.81 1.41-.81 1.41.81-1.41.81zM41.43 83.38l-1.4-.81 1.4-.82 1.41.82-1.41.81z" class="cls-10"/>
      <path d="M44.24 85l-1.4-.81 1.4-.81 1.41.81-1.41.81z" class="cls-12"/>
      <path d="M47.06 86.63l-1.41-.82 1.41-.81 1.4.81-1.4.82zM21.74 75.27l-1.41-.82 1.41-.81 1.4.81-1.4.82z" class="cls-10"/>
      <path d="M24.55 76.89l-1.41-.81 1.41-.81 1.4.81-1.4.81z" class="cls-11"/>
      <path d="M27.36 78.51l-1.41-.81 1.41-.81 1.41.81-1.41.81zM30.17 80.14l-1.4-.81 1.4-.82 1.41.82-1.41.81zM32.98 81.76l-1.4-.81 1.4-.81 1.41.81-1.41.81zM35.8 83.38l-1.41-.81 1.41-.81 1.4.81-1.4.81z" class="cls-10"/>
      <path d="M38.61 85.01l-1.41-.81 1.41-.82 1.41.82-1.41.81z" class="cls-12"/>
      <path d="M41.42 86.63l-1.4-.81 1.4-.81 1.41.81-1.41.81zM44.23 88.25l-1.4-.81 1.4-.81 1.41.81-1.41.81z" class="cls-10"/>
      <path d="M44.28 75.56L0 50l44.28-25.57L88.56 50 44.28 75.56z" class="cls-3"/>
      <path d="M44.28 68.58L12.09 50l32.19-18.59L76.47 50 44.28 68.58z" class="cls-4"/>
      <path d="M44.28 32.67l31.1 17.96 1.09-.63-32.19-18.59L12.09 50l1.09.63 31.1-17.96z" class="cls-5"/>
      <path d="M88.56 50v14.49L44.28 90.05V75.56L88.56 50z" class="cls-4"/>
      <path d="M0 50v14.49l44.28 25.56V75.56L0 50z" class="cls-6"/>
      <path d="M3 56.51v4.56l38.28 22.1v-4.56L3 56.51z" class="cls-7"/>
      <path d="M44.28 74.73L.72 49.58 0 50l44.28 25.56L88.56 50l-.72-.42-43.56 25.15z" class="cls-5"/>
      <path d="M81.92 60.15v2.59l-31 17.9v-2.59l31-17.9z" class="cls-3"/>
      <path d="M.04 50.26v14.49l44.28 25.57V75.83L.04 50.26z" class="cls-8"/>
      <path d="M31.35 74.79l-8.01-4.63-.01.96 8.02 4.63v-.96zM22.18 69.5l-2.17-1.25v.95l2.17 1.26v-.96zM12 63.63l-4.44-2.57v.96L12 64.58v-.95zM16.06 65.97l-3.22-1.86v.96l3.22 1.86v-.96zM19.07 67.71l-2.17-1.25v.95l2.17 1.26v-.96z" class="cls-9"/>
      <path d="M44.32 37.79l-1.4-.81 1.4-.81 1.41.81-1.41.81z" class="cls-10"/>
      <path d="M47.14 39.42l-1.41-.82 1.41-.81 1.4.81-1.4.82z" class="cls-11"/>
      <path d="M49.95 41.04l-1.41-.81 1.41-.81 1.4.81-1.4.81z" class="cls-12"/>
      <path d="M52.76 42.66l-1.41-.81 1.41-.81 1.41.81-1.41.81z" class="cls-10"/>
      <path d="M55.57 44.29l-1.4-.81 1.4-.82 1.41.82-1.41.81z" class="cls-12"/>
      <path d="M58.38 45.91l-1.4-.81 1.4-.81 1.41.81-1.41.81zM61.2 47.53l-1.41-.81 1.41-.81 1.4.81-1.4.81zM64.01 49.16l-1.41-.81 1.41-.82 1.4.82-1.4.81z" class="cls-10"/>
      <path d="M66.82 50.78l-1.41-.81 1.41-.81 1.41.81-1.41.81z" class="cls-11"/>
      <path d="M41.5 39.42l-1.41-.81 1.41-.81 1.41.81-1.41.81zM44.31 41.05l-1.4-.82 1.4-.81 1.41.81-1.41.82zM47.13 42.67l-1.41-.81 1.41-.81 1.4.81-1.4.81zM49.94 44.29l-1.41-.81 1.41-.81 1.4.81-1.4.81zM52.75 45.92l-1.41-.81 1.41-.82 1.41.82-1.41.81zM55.56 47.54l-1.4-.81 1.4-.81 1.41.81-1.41.81zM58.37 49.16l-1.4-.81 1.4-.81 1.41.81-1.41.81zM61.19 50.79l-1.41-.81 1.41-.82 1.4.82-1.4.81zM64 52.41l-1.41-.81 1.41-.81 1.4.81-1.4.81zM38.68 41.05l-1.41-.81 1.41-.81 1.4.81-1.4.81zM41.49 42.68l-1.41-.81 1.41-.82 1.41.82-1.41.81zM44.3 44.3l-1.4-.81 1.4-.81 1.41.81-1.41.81z" class="cls-10"/>
      <path d="M47.11 45.92l-1.4-.81 1.4-.81 1.41.81-1.41.81z" class="cls-11"/>
      <path d="M49.92 47.55l-1.4-.81 1.4-.82 1.41.82-1.41.81zM52.74 49.17l-1.41-.81 1.41-.81 1.4.81-1.4.81z" class="cls-12"/>
      <path d="M55.55 50.8l-1.41-.82 1.41-.81 1.4.81-1.4.82zM58.36 52.42l-1.4-.81 1.4-.81 1.41.81-1.41.81zM61.17 54.04l-1.4-.81 1.4-.81 1.41.81-1.41.81z" class="cls-10"/>
      <path d="M35.85 42.68l-1.4-.81 1.4-.81 1.41.81-1.41.81zM38.67 44.31l-1.41-.81 1.41-.82 1.4.82-1.4.81z" class="cls-12"/>
      <path d="M41.48 45.93l-1.41-.81 1.41-.81 1.4.81-1.4.81z" class="cls-11"/>
      <path d="M44.29 47.55l-1.41-.81 1.41-.81 1.41.81-1.41.81zM47.1 49.18l-1.4-.81 1.4-.82 1.41.82-1.41.81zM49.91 50.8l-1.4-.81 1.4-.81 1.41.81-1.41.81z" class="cls-10"/>
      <path d="M52.73 52.42l-1.41-.81 1.41-.81 1.4.81-1.4.81z" class="cls-12"/>
      <path d="M55.54 54.05l-1.41-.81 1.41-.82 1.4.82-1.4.81zM58.35 55.67l-1.41-.81 1.41-.81 1.41.81-1.41.81zM33.03 44.31l-1.41-.81 1.41-.81 1.41.81-1.41.81zM35.84 45.94l-1.4-.81 1.4-.82 1.41.82-1.41.81zM38.65 47.56l-1.4-.81 1.4-.81 1.41.81-1.41.81zM41.47 49.19l-1.41-.82 1.41-.81 1.4.81-1.4.82zM44.28 50.81L42.87 50l1.41-.81 1.4.81-1.4.81zM47.09 52.43l-1.4-.81 1.4-.81 1.41.81-1.41.81zM49.9 54.05l-1.4-.81 1.4-.81 1.41.81-1.41.81zM52.72 55.68l-1.41-.81 1.41-.82 1.4.82-1.4.81zM55.53 57.3l-1.41-.81 1.41-.81 1.4.81-1.4.81zM30.21 45.94l-1.41-.81 1.41-.81 1.4.81-1.4.81zM33.02 47.57l-1.41-.81 1.41-.82 1.4.82-1.4.81z" class="cls-10"/>
      <path d="M35.83 49.19l-1.41-.81 1.41-.81 1.41.81-1.41.81z" class="cls-12"/>
      <path d="M38.64 50.81l-1.4-.81 1.4-.81 1.41.81-1.41.81z" class="cls-10"/>
      <path d="M41.45 52.44l-1.4-.81 1.4-.82 1.41.82-1.41.81z" class="cls-11"/>
      <path d="M44.27 54.06l-1.41-.81 1.41-.81 1.4.81-1.4.81zM47.08 55.69l-1.41-.82 1.41-.81 1.4.81-1.4.82zM49.89 57.31l-1.41-.81 1.41-.81 1.41.81-1.41.81zM52.7 58.93l-1.4-.81 1.4-.81 1.41.81-1.41.81zM27.38 47.57l-1.4-.81 1.4-.81 1.41.81-1.41.81zM30.2 49.2l-1.41-.81 1.41-.82 1.4.82-1.4.81z" class="cls-10"/>
      <path d="M33.01 50.82l-1.41-.81 1.41-.81 1.4.81-1.4.81z" class="cls-12"/>
      <path d="M35.82 52.45l-1.41-.82 1.41-.81 1.41.81-1.41.82zM38.63 54.07l-1.4-.81 1.4-.81 1.41.81-1.41.81z" class="cls-10"/>
      <path d="M41.44 55.69l-1.4-.81 1.4-.81 1.41.81-1.41.81z" class="cls-11"/>
      <path d="M44.26 57.31l-1.41-.81 1.41-.81 1.4.81-1.4.81z" class="cls-12"/>
      <path d="M47.07 58.94l-1.41-.81 1.41-.82 1.4.82-1.4.81z" class="cls-10"/>
      <path d="M49.88 60.56l-1.41-.81 1.41-.81 1.41.81-1.41.81z" class="cls-11"/>
      <path d="M24.56 49.2l-1.41-.81 1.41-.81 1.41.81-1.41.81z" class="cls-10"/>
      <path d="M27.37 50.83l-1.4-.81 1.4-.82 1.41.82-1.41.81z" class="cls-12"/>
      <path d="M30.18 52.45l-1.4-.81 1.4-.81 1.41.81-1.41.81zM33 54.08l-1.41-.82 1.41-.81 1.4.81-1.4.82zM35.81 55.7l-1.41-.81 1.41-.81 1.4.81-1.4.81zM38.62 57.32l-1.41-.81 1.41-.81 1.41.81-1.41.81zM41.43 58.95l-1.4-.82 1.4-.81 1.41.81-1.41.82z" class="cls-10"/>
      <path d="M44.24 60.57l-1.4-.81 1.4-.81 1.41.81-1.41.81z" class="cls-12"/>
      <path d="M47.06 62.19l-1.41-.81 1.41-.81 1.4.81-1.4.81zM21.74 50.83l-1.41-.81 1.41-.81 1.4.81-1.4.81z" class="cls-10"/>
      <path d="M24.55 52.46l-1.41-.81 1.41-.82 1.4.82-1.4.81z" class="cls-11"/>
      <path d="M27.36 54.08l-1.41-.81 1.41-.81 1.41.81-1.41.81zM30.17 55.7l-1.4-.81 1.4-.81 1.41.81-1.41.81zM32.98 57.33l-1.4-.81 1.4-.82 1.41.82-1.41.81zM35.8 58.95l-1.41-.81 1.41-.81 1.4.81-1.4.81z" class="cls-10"/>
      <path d="M38.61 60.58l-1.41-.82 1.41-.81 1.41.81-1.41.82z" class="cls-12"/>
      <path d="M41.42 62.2l-1.4-.81 1.4-.81 1.41.81-1.41.81zM44.23 63.82l-1.4-.81 1.4-.81 1.41.81-1.41.81z" class="cls-10"/>
      <path d="M44.28 51.13L0 25.56 44.28 0l44.28 25.57-44.28 25.56z" class="cls-3"/>
      <path d="M44.28 44.15L12.09 25.56 44.28 6.98l32.19 18.58-32.19 18.59z" class="cls-4"/>
      <path d="M44.28 8.24l31.1 17.95 1.09-.63L44.28 6.98 12.09 25.56l1.09.63 31.1-17.95z" class="cls-5"/>
      <path d="M88.56 25.57v14.48L44.28 65.62V51.13l44.28-25.56z" class="cls-4"/>
      <path d="M0 25.56v14.49l44.28 25.57V51.13L0 25.56z" class="cls-6"/>
      <path d="M3 32.07v4.57l38.28 22.1v-4.57L3 32.07z" class="cls-7"/>
      <path d="M44.28 50.3L.72 25.15l-.72.41 44.28 25.57 44.28-25.56-.72-.42L44.28 50.3z" class="cls-5"/>
      <path d="M81.92 35.72v2.59l-31 17.9v-2.6l31-17.89z" class="cls-3"/>
      <path d="M0 25.56v14.49l44.28 25.57V51.13L0 25.56z" class="cls-8"/>
      <path d="M31.35 50.36l-8.01-4.63-.01.96 8.02 4.62v-.95zM22.18 45.07l-2.17-1.25v.95l2.17 1.26v-.96zM12 39.2l-4.44-2.57v.96L12 40.15v-.95zM16.06 41.54l-3.22-1.86v.96l3.22 1.85v-.95zM19.07 43.28l-2.17-1.26v.96l2.17 1.26v-.96zM44.32 13.36l-1.4-.81 1.4-.81 1.41.81-1.41.81z" class="cls-9"/>
      <path d="M47.14 14.98l-1.41-.81 1.41-.81 1.4.81-1.4.81z" class="cls-13"/>
      <path d="M49.95 16.61l-1.41-.81 1.41-.82 1.4.82-1.4.81z" class="cls-14"/>
      <path d="M52.76 18.23l-1.41-.81 1.41-.81 1.41.81-1.41.81z" class="cls-9"/>
      <path d="M55.57 19.86l-1.4-.82 1.4-.81 1.41.81-1.41.82z" class="cls-14"/>
      <path d="M58.38 21.48l-1.4-.81 1.4-.81 1.41.81-1.41.81zM61.2 23.1l-1.41-.81 1.41-.81 1.4.81-1.4.81zM64.01 24.73l-1.41-.82 1.41-.81 1.4.81-1.4.82z" class="cls-9"/>
      <path d="M66.82 26.35l-1.41-.81 1.41-.81 1.41.81-1.41.81z" class="cls-13"/>
      <path d="M41.5 14.99l-1.41-.81 1.41-.81 1.41.81-1.41.81zM44.31 16.61l-1.4-.81 1.4-.81 1.41.81-1.41.81zM47.13 18.24l-1.41-.81 1.41-.82 1.4.82-1.4.81zM49.94 19.86l-1.41-.81 1.41-.81 1.4.81-1.4.81zM52.75 21.49l-1.41-.82 1.41-.81 1.41.81-1.41.82zM55.56 23.11l-1.4-.81 1.4-.81 1.41.81-1.41.81zM58.37 24.73l-1.4-.81 1.4-.81 1.41.81-1.41.81zM61.19 26.36l-1.41-.82 1.41-.81 1.4.81-1.4.82zM64 27.98l-1.41-.81 1.41-.81 1.4.81-1.4.81zM38.68 16.62l-1.41-.81 1.41-.81 1.4.81-1.4.81zM41.49 18.25l-1.41-.82 1.41-.81 1.41.81-1.41.82zM44.3 19.87l-1.4-.81 1.4-.81 1.41.81-1.41.81z" class="cls-9"/>
      <path d="M47.11 21.49l-1.4-.81 1.4-.81 1.41.81-1.41.81z" class="cls-13"/>
      <path d="M49.92 23.12l-1.4-.82 1.4-.81 1.41.81-1.41.82zM52.74 24.74l-1.41-.81 1.41-.81 1.4.81-1.4.81z" class="cls-14"/>
      <path d="M55.55 26.36l-1.41-.81 1.41-.81 1.4.81-1.4.81zM58.36 27.99l-1.4-.81 1.4-.82 1.41.82-1.41.81zM61.17 29.61l-1.4-.81 1.4-.81 1.41.81-1.41.81z" class="cls-9"/>
      <path d="M35.85 18.25l-1.4-.81 1.4-.81 1.41.81-1.41.81zM38.67 19.88l-1.41-.82 1.41-.81 1.4.81-1.4.82z" class="cls-14"/>
      <path d="M41.48 21.5l-1.41-.81 1.41-.81 1.4.81-1.4.81z" class="cls-13"/>
      <path d="M44.29 23.12l-1.41-.81 1.41-.81 1.41.81-1.41.81zM47.1 24.75l-1.4-.82 1.4-.81 1.41.81-1.41.82zM49.91 26.37l-1.4-.81 1.4-.81 1.41.81-1.41.81z" class="cls-9"/>
      <path d="M52.73 27.99l-1.41-.81 1.41-.81 1.4.81-1.4.81z" class="cls-14"/>
      <path d="M55.54 29.62l-1.41-.82 1.41-.81 1.4.81-1.4.82zM58.35 31.24l-1.41-.81 1.41-.81 1.41.81-1.41.81zM33.03 19.88l-1.41-.81 1.41-.81 1.41.81-1.41.81zM35.84 21.5l-1.4-.81 1.4-.81 1.41.81-1.41.81zM38.65 23.13l-1.4-.81 1.4-.82 1.41.82-1.41.81zM41.47 24.75l-1.41-.81 1.41-.81 1.4.81-1.4.81zM44.28 26.38l-1.41-.82 1.41-.81 1.4.81-1.4.82zM47.09 28l-1.4-.81 1.4-.81 1.41.81-1.41.81zM49.9 29.62l-1.4-.81 1.4-.81 1.41.81-1.41.81zM52.72 31.25l-1.41-.82 1.41-.81 1.4.81-1.4.82zM55.53 32.87l-1.41-.81 1.41-.81 1.4.81-1.4.81zM30.21 21.51l-1.41-.81 1.41-.81 1.4.81-1.4.81zM33.02 23.14l-1.41-.82 1.41-.81 1.4.81-1.4.82z" class="cls-9"/>
      <path d="M35.83 24.76l-1.41-.81 1.41-.81 1.41.81-1.41.81z" class="cls-14"/>
      <path d="M38.64 26.38l-1.4-.81 1.4-.81 1.41.81-1.41.81z" class="cls-9"/>
      <path d="M41.45 28.01l-1.4-.82 1.4-.81 1.41.81-1.41.82z" class="cls-13"/>
      <path d="M44.27 29.63l-1.41-.81 1.41-.81 1.4.81-1.4.81zM47.08 31.25l-1.41-.81 1.41-.81 1.4.81-1.4.81zM49.89 32.88l-1.41-.82 1.41-.81 1.41.81-1.41.82zM52.7 34.5l-1.4-.81 1.4-.81 1.41.81-1.41.81zM27.38 23.14l-1.4-.81 1.4-.81 1.41.81-1.41.81zM30.2 24.77l-1.41-.82 1.41-.81 1.4.81-1.4.82z" class="cls-9"/>
      <path d="M33.01 26.39l-1.41-.81 1.41-.81 1.4.81-1.4.81z" class="cls-14"/>
      <path d="M35.82 28.01l-1.41-.81 1.41-.81 1.41.81-1.41.81zM38.63 29.64l-1.4-.82 1.4-.81 1.41.81-1.41.82z" class="cls-9"/>
      <path d="M41.44 31.26l-1.4-.81 1.4-.81 1.41.81-1.41.81z" class="cls-13"/>
      <path d="M44.26 32.88l-1.41-.81 1.41-.81 1.4.81-1.4.81z" class="cls-14"/>
      <path d="M47.07 34.51l-1.41-.81 1.41-.82 1.4.82-1.4.81z" class="cls-9"/>
      <path d="M49.88 36.13l-1.41-.81 1.41-.81 1.41.81-1.41.81z" class="cls-13"/>
      <path d="M24.56 24.77l-1.41-.81 1.41-.81 1.41.81-1.41.81z" class="cls-9"/>
      <path d="M27.37 26.4l-1.4-.82 1.4-.81 1.41.81-1.41.82z" class="cls-14"/>
      <path d="M30.18 28.02l-1.4-.81 1.4-.81 1.41.81-1.41.81zM33 29.64l-1.41-.81 1.41-.81 1.4.81-1.4.81zM35.81 31.27l-1.41-.82 1.41-.81 1.4.81-1.4.82zM38.62 32.89l-1.41-.81 1.41-.81 1.41.81-1.41.81zM41.43 34.51l-1.4-.81 1.4-.81 1.41.81-1.41.81z" class="cls-9"/>
      <path d="M44.24 36.14l-1.4-.81 1.4-.82 1.41.82-1.41.81z" class="cls-14"/>
      <path d="M47.06 37.76l-1.41-.81 1.41-.81 1.4.81-1.4.81zM21.74 26.4l-1.41-.81 1.41-.81 1.4.81-1.4.81z" class="cls-9"/>
      <path d="M24.55 28.03l-1.41-.82 1.41-.81 1.4.81-1.4.82z" class="cls-13"/>
      <path d="M27.36 29.65l-1.41-.81 1.41-.81 1.41.81-1.41.81zM30.17 31.27l-1.4-.81 1.4-.81 1.41.81-1.41.81zM32.98 32.9l-1.4-.81 1.4-.82 1.41.82-1.41.81zM35.8 34.52l-1.41-.81 1.41-.81 1.4.81-1.4.81z" class="cls-9"/>
      <path d="M38.61 36.14l-1.41-.81 1.41-.81 1.41.81-1.41.81z" class="cls-14"/>
      <path d="M41.42 37.77l-1.4-.82 1.4-.81 1.41.81-1.41.82zM44.23 39.39l-1.4-.81 1.4-.81 1.41.81-1.41.81z" class="cls-9"/>
    </g>
  </g>
</svg>
