<svg xmlns="http://www.w3.org/2000/svg" height="682.667" viewBox="0 0 512 512" width="682.667" fill="#DD3034"  ><g fill="#fff"><path d="M8 88h272v384H8zm0 0"/><path d="M8 8h272v80H8zm272.504 404.496c85.883 0 155.504-69.625 155.504-155.508s-69.625-155.504-155.508-155.5S124.996 171.117 125 257s69.621 155.5 155.504 155.496zm0 0"/><path d="M464 392V232h32l-64-88-64 88h32v160zM64 432h16v16H64zm0 0"/><path d="M96 432h16v16H96zm32 0h16v16h-16zm-96 0h16v16H32zm32-64h16v16H64zm0 0"/><path d="M96 368h16v16H96zm32 0h16v16h-16zm-96 0h16v16H32zm32-64h16v16H64zm0 0"/><path d="M32 304h16v16H32zm64 0h16v16H96zm-32-64h16v16H64zm-32 0h16v16H32zm32-128h16v16H64zm-32 0h16v16H32zm64 0h16v16H96zm32 0h16v16h-16zm0 0"/><path d="M64 176h16v16H64zm-32 0h16v16H32zm64 0h16v16H96zm176-48h16v16h-16zm0 240h16v16h-16zM152 248h16v16h-16zm31.84-76.852l11.313-11.312 11.313 11.313-11.312 11.316zm169.707 169.704l11.316-11.312 11.313 11.313-11.312 11.316zm-169.711 0l11.316-11.312 11.313 11.313-11.312 11.313zm0 0"/></g><path d="M432 130.398L352.289 240H392v113.344c-39.348 45.68-102.527 62.82-159.566 43.293s-96.457-71.793-99.555-132.004 30.75-116.242 85.48-141.52 119.34-14.711 163.168 26.688l-20 27.496 12.945 9.406L432 107.602l57.527 79.102 12.945-9.406L432 80.398 391 136.8c-28.152-26.074-64.664-41.281-103-42.906V0H0v480h288v-59.727a163.04 163.04 0 0 0 104-43.777V400h80V240h39.711zM16 48h16V32H16V16h256v16h-16v16h16v32H16zm0 48h237.121c-16.691 2.805-32.844 8.203-47.863 16H160v16h20.391a164.62 164.62 0 0 0-17.797 16H16zm0 64h133.152c-10.844 14.512-19.18 30.738-24.672 48H16zm0 64h104.305a163.02 163.02 0 0 0-3.344 32.961c0 5.078.305 10.078.801 15.039H16zm0 64h104a162.18 162.18 0 0 0 17.434 48H16zm0 64h131.68a164.49 164.49 0 0 0 53.754 48H16zm256 112H16v-48h224v-.801a162.59 162.59 0 0 0 32 4.848zm184-240v160h-48V224h-24.289L432 157.602 480.289 224zm-184-64v99.313l46.344 46.344 11.313-11.312L288 252.688V160zM16 496h48v16H16zm208 0h48v16h-48zm0 0"/><path d="M160 432h96v16h-96zM48 32h192v16H48zm0 0"/></svg>