<svg id="Layer_1" data-name="Layer 1" xmlns="http://www.w3.org/2000/svg" viewBox="0 0 2165.23 2618.9"><defs><style>.cls-1{fill:#e5bf55;}.cls-2{fill:#eed069;}.cls-13,.cls-3,.cls-8{fill:none;}.cls-3{stroke:#303030;stroke-width:14.07px;}.cls-13,.cls-3{stroke-linecap:round;stroke-linejoin:round;}.cls-4{fill:#333;}.cls-5{fill:#ff9b80;}.cls-6{fill:#a3c2ef;}.cls-7{fill:#f5534f;}.cls-13,.cls-8{stroke:#333;stroke-width:3.52px;}.cls-8{stroke-miterlimit:10;}.cls-9{fill:#ffa192;}.cls-10,.cls-11{fill:#e54141;}.cls-10{opacity:0.47;}.cls-11{opacity:0.58;}.cls-12{fill:#fff;}</style></defs><rect class="cls-1" x="7.55" y="1018.41" width="2149.12" height="1593.45"/><polygon class="cls-2" points="1082.11 2003.08 7.04 1019.43 2158.2 1019.43 1082.11 2003.08"/><polyline class="cls-3" points="7.04 1019.43 1082.11 2003.08 2158.2 1019.43"/><line class="cls-3" x1="7.03" y1="2611.86" x2="965.03" y2="1903.56"/><line class="cls-3" x1="1198.35" y1="1898.87" x2="2158.2" y2="2611.86"/><path class="cls-4" d="M1034.14,466.24c11.21,8.06,13.1,26.29,3.78,36.48-9.77,10.68-30.19,16.14-27.67,30.4,1.55,8.77,11.58,12.9,17.15,19.85,9.16,11.44,2.39,31.5-11.83,35,19.44-2.26,35-22.2,32.41-41.6a91.26,91.26,0,0,0,3.18,45.2c1.44,4.31,3.34,8.7,6.89,11.54,6.1,4.87,15.68,4.08,21,9.79,11.09,11.89-7.23,37.54,7,45.36,3.53,1.93,7.82,1.6,11.82,1.17,20.68-2.24,41.77-5.71,62.06-1.16s40,19.59,42.48,40.23c13.7-27.16,59.8-13.08,81.13-34.76,13.21-13.42,13.71-37.92,30.54-46.37,17.24-8.66,37.76,6.5,56.78,3.26,16.45-2.8,28.24-21.51,23.65-37.56-1.92-6.73-6.21-13.8-3.31-20.17,3-6.7,11.84-7.86,19.15-8.74,10.09-1.21,20.44-3.84,28.18-10.43s12.08-18,8-27.3c-2.86-6.54-9.38-11.33-10.81-18.32-2.35-11.43,9.46-20.19,19.29-26.47s20.43-17.6,15-27.94c-2.64-5.05-8.31-7.61-12.53-11.45s-6.74-11.27-2.32-14.87c-2,8.71,13.18,8.05,20.47,13.2,6.59,4.65,5.84,14.84,2.24,22.05s-9.33,13.55-10.88,21.46,4.21,18,12.12,16.5c-10.08-5.69-5.61-21.43,2-30.12s18-17.89,16.11-29.31c-2.64-15.56-25.54-19.4-31.15-34.15-6.4-16.85,13.61-36.76,4.51-52.31-5.81-9.92-20.68-11.75-26-21.92-8.85-16.83,15.76-39.22,4.46-54.51-8-10.75-26.09-6.16-36.53-14.53-14.87-11.9-4.77-41-20.8-51.28-15.1-9.69-37.39,8.37-52.2-1.78-6.19-4.24-8.7-12.14-13.92-17.54-7.7-7.95-21.52-8.93-30.27-2.13-3.51,2.73-6.31,6.54-10.42,8.24-15.5,6.4-31.23-21.33-45.85-13.11-7.43,4.18-7.85,14.85-13.37,21.36-11.27,13.28-36.45,3.07-48.28,15.85-9.78,10.57-3.19,29.29-11.9,40.75-7.18,9.45-21,9.6-32.86,9.75s-26.18,3-30.26,14.09c-4.7,12.81,8,27.7,2.14,40-7.45,15.82-35.91,9.78-43.87,25.36-8.24,16.13,15.25,32.82,13.14,50.81-1.21,10.26-10.52,17.62-19.87,22s-19.73,7.15-27.54,13.91-11.9,19.56-5.17,27.4C1024.66,461.46,1029.91,463.21,1034.14,466.24Z" transform="translate(-440.65 -174.65)"/><path class="cls-5" d="M1513,875.92l165.61,230.61s59.88,9.78,72.79,17.37,58.71,57.77,58.71,57.77-7.08,2.19-15.69-2.87,4.91,11.35,4.91,11.35-3.18,8.71-18-2.14-92.78-22.77-92.78-22.77L1441.16,919.39Z" transform="translate(-440.65 -174.65)"/><path class="cls-5" d="M1015.21,878.91,898.73,1137.83s-56.73,21.49-67.88,31.49-46.06,68.29-46.06,68.29,7.37.74,14.81-5.93-2.56,12.1-2.56,12.1,4.85,7.9,17.26-5.69,86.4-40.75,86.4-40.75l193.58-290.1Z" transform="translate(-440.65 -174.65)"/><path class="cls-4" d="M1955.76,1769.22s19.4,66.47,29.66,114.38c0,0,.79,2.39,9.3-1.12a451.13,451.13,0,0,1-9.81-93.65L1968.16,1768Z" transform="translate(-440.65 -174.65)"/><path class="cls-5" d="M1904.28,1641.56l77.28,76.43-17.86,19.24,37.47,47.09,23,74.91,78.08.23,1.41-22.7s-8.11-5.24-10.4-7.74-26.7-41.62-75.26-118.81c-1.83-2.9-63.3-113.84-66-133.38Z" transform="translate(-440.65 -174.65)"/><path class="cls-4" d="M2092.64,1824.35c-32.95,40.33-61.18,55.2-102.69-81.34-.86-2.83-7.41-23-7-26.5-10,13.62-37.1,19.69-27.09,53.22,0,0,41.92,8.26,59.3,90.57,2.2,10.41,5.55,13.64,15.48,17.46,5.7,2.18,92.09-9.27,135.61-21.7C2166.24,1856.06,2164.23,1848.86,2092.64,1824.35Z" transform="translate(-440.65 -174.65)"/><path class="cls-4" d="M1720.79,1912.84s-1.13,69.24-5.49,118c0,0,0,2.51,9.21,1.68a450.84,450.84,0,0,1,18.33-92.35l-9.83-24.9Z" transform="translate(-440.65 -174.65)"/><path class="cls-5" d="M1701.08,1738.51l59.51,133-22.75,13.09,21.86,56.07-.17,78.37,74.52,23.31,8.06-21.27s-6.19-7.4-7.64-10.46-13.2-47.66-36.75-135.75c-.74-2.77-20.51-108.09-25.18-154.28a7.63,7.63,0,0,0-13.47-4.1Z" transform="translate(-440.65 -174.65)"/><path class="cls-4" d="M1835.24,2006c-43.41,28.79-74.77,34.64-74-108.07,0-3-.29-24.11,1.14-27.39-13.58,10.06-41.26,7.84-41.62,42.83,0,0,37.6,20.29,29.86,104.06-1,10.6,1.25,14.67,9.62,21.25,4.8,3.78,90.7,18.38,136,19.39C1896.16,2058.06,1896.38,2050.59,1835.24,2006Z" transform="translate(-440.65 -174.65)"/><path class="cls-6" d="M1362.48,977.92l53.17,59.82,260.43,197.81,106.7,517.22-84.09,18S1563.86,1401.19,1557.61,1309L1235.2,1228.3l-11.49-195.25,49.41-59.62Z" transform="translate(-440.65 -174.65)"/><path class="cls-6" d="M1298.89,972.12l28.88,64.93s345.72,26,370.33,37.45S1988,1632.26,1988,1632.26l-74.73,42.64s-244.1-276.32-274.94-440.36c0,0-429.5,39.18-502-16.87-75.31-58.17-77-113.77,4.87-267.53Z" transform="translate(-440.65 -174.65)"/><path class="cls-7" d="M1242.12,548.14s27.42,51.24,71,5.17c0,0,113.28,18.61,128.92,34.7s82.07,304.84,82.07,304.84l-83.25,29.31-26.16-134.39s-9.89,13.19-17.85,14.35c0,0-14.4,78-17.38,110.74s18.09,102.55,18.09,102.55l-286-16.33,19.2-33.5c24-41.86,25.59-71.82,27-80,.63-3.57-16-122.67-20.5-126.57,0,0-44.85,176.51-44.85,160.7,0-1.76-82.88-33.2-82.88-33.2s84.6-282.87,99.51-292.6C1147.76,568.6,1242.12,548.14,1242.12,548.14Z" transform="translate(-440.65 -174.65)"/><path class="cls-8" d="M1217.73,1013s-11.61,96.64-98.31,98.5" transform="translate(-440.65 -174.65)"/><path class="cls-8" d="M1141.53,1110.07s30.85,63.44,167.63,63.36,354-9.57,360.78-7.55,265.36,472.23,265.36,472.23" transform="translate(-440.65 -174.65)"/><path class="cls-4" d="M1302.79,750.5s-51.85,69.33-134.65-6C1168.14,744.54,1234.81,851.15,1302.79,750.5Z" transform="translate(-440.65 -174.65)"/><path class="cls-8" d="M1310.8,1247.05l316.43-19.11s47.32,123,85,172.5" transform="translate(-440.65 -174.65)"/><polyline class="cls-8" points="984.61 871.15 862.29 864.9 860.14 835.08"/><path class="cls-9" d="M1241.29,425s1.38,103.21-1.78,111.33-52,26.71-52,26.71,97.35,49.5,174.76-.29c0,0-35.46-18.74-38.21-24.85s-4.54-73.42-4.54-73.42Z" transform="translate(-440.65 -174.65)"/><path class="cls-4" d="M1241.48,444.09c0-.39,0-.81,0-1.18l41.89,3.26,36.19,18.26s.26,9.41.72,21.5C1310.07,487.07,1277.42,486.66,1241.48,444.09Z" transform="translate(-440.65 -174.65)"/><path class="cls-9" d="M1375.6,317.15c15.53,103.19-33.63,150.14-57.08,153.42-30.25,4.23-84.62-16.19-99.36-61.52,0,0-37.49,1.54-41.23-18.85C1171,352.64,1201.69,371,1201.69,371s-57.92-113.09,43.67-146.35C1311.72,202.91,1360.72,218.22,1375.6,317.15Z" transform="translate(-440.65 -174.65)"/><path class="cls-4" d="M1250.73,330.94c1-2.23,5.68-2.8,7.77-3.46a38.76,38.76,0,0,1,13.27-1.81,79.16,79.16,0,0,1,10.53,1.23c2.34.4,6.45,1.65,8.48-.25,1.26-1.18,1-3.33-.13-4.61-2.62-3-8.67-3.12-12.38-3.39C1267.45,317.85,1255.44,320.05,1250.73,330.94Z" transform="translate(-440.65 -174.65)"/><ellipse class="cls-10" cx="1266.41" cy="385.92" rx="20.46" ry="10.37" transform="translate(-460.05 -104.05) rotate(-3.17)"/><ellipse class="cls-10" cx="1356.09" cy="377.15" rx="18.53" ry="9.45" transform="translate(-459.43 -99.1) rotate(-3.17)"/><path class="cls-4" d="M1315.58,392.32c7.25-.4,12-7.84,12.15-8.17a1.41,1.41,0,0,0,0-1.42c-11-20.78-8.52-44.32-8.49-44.56a1.45,1.45,0,0,0-1.28-1.59,1.47,1.47,0,0,0-1.59,1.28c-.11,1-2.51,24.09,8.4,45.43-1.22,1.66-4.77,5.89-9.4,6.15l-.5,0a1.44,1.44,0,0,0,.09,2.88Z" transform="translate(-440.65 -174.65)"/><path class="cls-11" d="M1292.2,416l20.47-9.13,8.21,5.74,6.68-6.76,16.9,7S1339.65,438.94,1321,441C1299.41,443.35,1292.2,416,1292.2,416Z" transform="translate(-440.65 -174.65)"/><path class="cls-12" d="M1292.2,416l52.26-3.14S1322.24,450,1292.2,416Z" transform="translate(-440.65 -174.65)"/><path class="cls-4" d="M1282.92,350.93c-1-9.46-6-16.68-11.15-16.13s-8.5,8.66-7.49,18.12,6,16.68,11.16,16.13S1283.94,360.38,1282.92,350.93Z" transform="translate(-440.65 -174.65)"/><path class="cls-4" d="M1365.82,320.5c-1.33-2-5.73-1.54-7.77-1.75a33.71,33.71,0,0,0-12.44,1,69.64,69.64,0,0,0-9.34,3.42c-2.06.88-5.55,3-7.78,1.53-1.38-.88-1.57-3-.79-4.53,1.8-3.44,7.27-4.87,10.59-5.91C1348,311.22,1359.37,310.85,1365.82,320.5Z" transform="translate(-440.65 -174.65)"/><path class="cls-4" d="M1338.08,345c-1-9.46,2.34-17.57,7.48-18.12s10.14,6.67,11.15,16.12-2.34,17.57-7.48,18.12S1339.09,354.48,1338.08,345Z" transform="translate(-440.65 -174.65)"/><path class="cls-4" d="M1157.36,313.15c-.53,6.5-.39,13.29,2.38,19.2,2.6,5.52,7.26,9.77,11.94,13.69a273.34,273.34,0,0,0,30.73,22.34,16.07,16.07,0,0,0,6.24-8.85c8.36,6.59,23-2.92,20.4-13.24-1.73-6.79-8.92-12.67-6.74-19.33,2.69-8.18,15.8-6.69,21.14-13.44,6.56-8.28-2.58-23.13,5.35-30.11,2-1.76,4.67-2.5,7-3.74a18.14,18.14,0,0,0,9.24-18.2c-2.29,6.2,6.56,10.59,13.16,10.13s14.74-1.84,18.46,3.63c4.92,7.23-2.59,21,5.6,24.08,4.17,1.58,8.67-2,13.11-1.48,4.25.49,7.25,4.79,7.75,9.05s-.93,8.49-2.33,12.54c4.06-5.19,8.31-10.84,8.61-17.42s-5.49-13.76-11.89-12.2c-2.73.67-5.48,2.76-8,1.64-4-1.74-1.88-7.61-.48-11.73a19.9,19.9,0,0,0-6.38-21.48A13.55,13.55,0,0,1,1313.1,254c-1.45,14.73,10.23,29.53,24.89,31.54,2.22.31,4.65.43,6.33,1.91,3.84,3.4.31,9.74,1.23,14.78,1.22,6.72,9.41,9,15.69,11.65a38.83,38.83,0,0,1,23,34.93c0,2.57-.24,5.28.92,7.58s4.43,3.73,6.37,2a6,6,0,0,0,1.52-2.75c8.25-23.83,14.92-49.35,10-74.07s-21.44-46.12-42.63-59.55-46.71-19.17-71.79-18.83c-31.3.44-62.76,10.38-87.24,29.89S1159.88,282,1157.36,313.15Z" transform="translate(-440.65 -174.65)"/><path class="cls-13" d="M1414.69,787.77s11.51-21,13.85-30.34L1408,697.05" transform="translate(-440.65 -174.65)"/></svg>