<svg xmlns="http://www.w3.org/2000/svg" viewBox="0 0 2066.55 2102.51"><defs><style>.cls-1{isolation:isolate;}.cls-2{fill:#dba2a2;}.cls-3{opacity:0.2;mix-blend-mode:multiply;}.cls-4{fill:#d89393;}.cls-5{fill:#efb9b9;}.cls-6{fill:#4991ac;}.cls-7{fill:#c73967;}.cls-8{fill:#f96164;}.cls-9{fill:#212e53;}.cls-10{fill:#164768;}.cls-11{fill:#175282;}.cls-12{fill:#98a2a5;}.cls-13{fill:#767777;}.cls-14{fill:#f7777e;}.cls-15{fill:#565656;}.cls-16{fill:#ffd881;}.cls-17{fill:#d97b7a;}.cls-18{fill:#fff;}.cls-19{fill:#7189bf;}.cls-20{fill:#d3f6e9;}</style></defs><g class="cls-1"><g id="_ëîé_1" data-name="‘ëîé_1"><path class="cls-2" d="M573.63,267.53s5.27,99.22,0,113.89,93.07,3.45,93.07,3.45l-4.14-84.52Z" transform="translate(-66.23 -48.25)"/><g class="cls-3"><path class="cls-4" d="M574.31,271.41l1.5,57s23.79,11.45,47.87,14.25,40.85-2,40.85-2l-1.94-40.85Z" transform="translate(-66.23 -48.25)"/></g><path class="cls-2" d="M716.31,198.07l14.45,42.2a5.17,5.17,0,0,1-2.72,6.36l-14.32,6.64Z" transform="translate(-66.23 -48.25)"/><path class="cls-5" d="M702.41,127.9s17.57,45.43,18.26,99.24c.29,23-8,59.46-12.16,76.37a22.19,22.19,0,0,1-16.11,16.26c-7.3,1.81-18.27,3-34.6,1.8-41.31-2.92-81.77-24.07-92-42.28-12.48-22.3-33.35-60.91-8.8-106.21s42.4-63.93,82-63.32S702.41,127.9,702.41,127.9Z" transform="translate(-66.23 -48.25)"/><path class="cls-6" d="M581.19,215.89c27.16-7.85,54.49-36.31,76.08-40.84s79.8,12.29,94.68-2.58,18.11-31.85,0-34.68-43.47-27.42-88-13.19S545.61,144,536.56,175.05s-16.82,58.87,0,57.57S581.19,215.89,581.19,215.89Z" transform="translate(-66.23 -48.25)"/><path class="cls-6" d="M585.07,198.5c-3.88,12.13-5.18,47.71-3.24,63.23s.24,40.8-7,45.63S550.14,319.3,543,289.54s-16.38-44.63-18.11-58.21,11.65-56.28,11.65-56.28Z" transform="translate(-66.23 -48.25)"/><circle class="cls-5" cx="585.07" cy="225.67" r="27.17" transform="translate(-108.14 188.58) rotate(-22.11)"/><path class="cls-7" d="M657.27,163.14l3.62.1c72.18,1.84,82.44,1.7,97.71-7.21,15.53-9.06,39.46-30.4,39.46-30.4L722.38,111.4s-4.53,11.32-19.57,26.69C691.28,149.88,657.27,163.14,657.27,163.14Z" transform="translate(-66.23 -48.25)"/><path class="cls-7" d="M652.72,167c57.17-19.78,69.66-55.63,69.66-55.63s-28.69-67.27-83.52-63S543,67.15,533.55,104.24,531.74,192,531.74,192,589.78,188.8,652.72,167Z" transform="translate(-66.23 -48.25)"/><path class="cls-8" d="M576,348.87c-65.79,43.34-148.34,228-194.64,378.91-24.22,78.88-39.89,261.85-39.89,261.85s60.15,34.92,102.84,54.33,225,25.15,235.11,3.8,34.34-436.41,21.84-549c-4.31-38.77-35.64-136.74-35.64-136.74s-27.93,5.72-51,1C594.29,358.89,576,348.87,576,348.87Z" transform="translate(-66.23 -48.25)"/><path class="cls-9" d="M66.23,2008.72l177,142s25.36-31.61,1.89-64.82-62.42-69-62.42-69l-56.92-71.59Z" transform="translate(-66.23 -48.25)"/><path class="cls-9" d="M770.82,2138.09H981.17s0-40.54-36.22-51.75-117.88-11.91-117.88-11.91a103.51,103.51,0,0,1-35.63,8.46c-14.67.82-22-3.58-22-3.58Z" transform="translate(-66.23 -48.25)"/><path class="cls-10" d="M639.4,1447.7s-42.69,172.71-141.65,281.38-304.66,293-304.66,293-30.19,0-56.06-22.42c-15.59-13.51-21.56-55.2-21.56-55.2s193.83-262,226-320.18S453.11,1233.2,453.11,1233.2Z" transform="translate(-66.23 -48.25)"/><path class="cls-11" d="M765.53,1556.37c-9.7-34.93-77-481.83-79.56-497.12s16.82-288.57,16.82-288.57l-.62-7.6c2.22-32.59,3-121.55,3-195.93,0-48-7-87-7.58-89.44-1.58-7.22,0-111.29-116.41-100.3-73.1,6.9-95.82,171-118.16,227.68-30,76.12-58.12,52.41-58.12,52.41s-42,78.41-63.48,270.8c-4.8,43-20.27,295.6,59.94,405.56s363,754.21,363,754.21,30.29,9.92,58.32,1.72c30.44-8.89,36-26.95,36-26.95S775.24,1591.3,765.53,1556.37ZM633.16,874.61c-36.87,20.46-81.48,19.7-121.83,0C438,838.82,531.17,488.66,541.51,459.34A221.54,221.54,0,0,1,557.08,426c11.6-20.68,33.94-33.45,57.61-32.06,7.29.43,13.23,3.23,18.47,5.92,33.54,17.25,56.7,58.22,54.75,108.67C687,531.25,688,844.16,633.16,874.61Z" transform="translate(-66.23 -48.25)"/><rect class="cls-12" x="879.23" y="729.99" width="37.42" height="983.83"/><rect class="cls-13" x="855.24" y="567.74" width="85.38" height="205.47" rx="14.23"/><path class="cls-5" d="M920.13,665s20.7-41.39,47.86-36.22,34.93,25.43,40.11,17.89,12.93-29.53,0-39.88-50.46-18.11-69.86-15.52-49.16,46.57-54.33,62.09S920.13,665,920.13,665Z" transform="translate(-66.23 -48.25)"/><path class="cls-14" d="M893,619.76s28.46,21.13,34.93,45.71-4.53,73.3-4.53,73.3-118.37,60.81-164.94,66-129.37,22-179-38.23c-24.1-29.26-80.86-208.37-57.26-285.62,23.46-76.76,45.56-92.17,90.06-92.07,32.24.08,82.28,48.13,66,101.56-67.92,222.51,87,194.05,119.85,186.29S893,619.76,893,619.76Z" transform="translate(-66.23 -48.25)"/><path class="cls-15" d="M1967.18,1866.7a111,111,0,1,0,111,111A111,111,0,0,0,1967.18,1866.7Zm0,173.39a62.42,62.42,0,1,1,62.42-62.42A62.42,62.42,0,0,1,1967.18,2040.09Z" transform="translate(-66.23 -48.25)"/><path class="cls-15" d="M1129.75,1865.84a111,111,0,1,0,111,111A111,111,0,0,0,1129.75,1865.84Zm0,173.39a62.42,62.42,0,1,1,62.42-62.42A62.42,62.42,0,0,1,1129.75,2039.23Z" transform="translate(-66.23 -48.25)"/><path class="cls-13" d="M1129.75,1812.09a165.59,165.59,0,1,0,165.59,165.58A165.59,165.59,0,0,0,1129.75,1812.09Zm0,258.73a93.15,93.15,0,1,1,93.15-93.15A93.14,93.14,0,0,1,1129.75,2070.82Z" transform="translate(-66.23 -48.25)"/><path class="cls-13" d="M1967.18,1811.22a165.59,165.59,0,1,0,165.59,165.59A165.59,165.59,0,0,0,1967.18,1811.22Zm0,258.73a93.14,93.14,0,1,1,93.15-93.14A93.14,93.14,0,0,1,1967.18,2070Z" transform="translate(-66.23 -48.25)"/><rect class="cls-12" x="879.23" y="1695.39" width="1172.61" height="61.66"/><polygon class="cls-16" points="1994.1 1695 916.64 1695 916.64 1131.83 1368.27 1131.83 1994.1 1131.83 1994.1 1695"/><rect class="cls-17" x="1364.66" y="1154.98" width="1" height="540.02"/><path class="cls-17" d="M2038.2,1716.48c-5.12-4.6-512.68-459.79-577.21-511.69l.62-.78c64.56,51.91,572.14,507.13,577.26,511.72Z" transform="translate(-66.23 -48.25)"/><path class="cls-17" d="M1450.56,1733.82l-.68-.73c5.12-4.76,512.7-475.76,577.27-527.68l.62.78C1963.24,1258.09,1455.68,1729.07,1450.56,1733.82Z" transform="translate(-66.23 -48.25)"/><rect class="cls-18" x="979.08" y="1615.82" width="149.45" height="52.04"/><rect class="cls-19" x="979.08" y="1667.86" width="149.45" height="17.35"/><polygon class="cls-16" points="1766.58 1131.83 1043.43 1131.83 1043.43 679.55 1346.55 679.55 1766.58 679.55 1766.58 1131.83"/><rect class="cls-17" x="1343.96" y="698.14" width="1" height="433.69"/><path class="cls-17" d="M1817.82,1158.62c-3.44-3.69-344.09-369.26-387.41-410.93l.7-.72c43.33,41.69,384,407.28,387.44,411Z" transform="translate(-66.23 -48.25)"/><path class="cls-17" d="M1423.7,1172.54l-.75-.67c3.44-3.81,344.12-382.07,387.45-423.77l.7.72C1767.79,790.49,1427.13,1168.73,1423.7,1172.54Z" transform="translate(-66.23 -48.25)"/><rect class="cls-18" x="1085.33" y="1068.24" width="100.31" height="41.79"/><rect class="cls-19" x="1085.33" y="1110.03" width="100.31" height="13.93"/><polygon class="cls-16" points="1518.85 682.54 1071.17 682.54 1071.17 402.56 1258.82 402.56 1518.85 402.56 1518.85 682.54"/><rect class="cls-17" x="1257.03" y="414.06" width="1" height="268.48"/><path class="cls-17" d="M1575.65,717.64c-2.12-2.29-213-228.59-239.82-254.39l.7-.72c26.83,25.82,237.73,252.14,239.85,254.42Z" transform="translate(-66.23 -48.25)"/><path class="cls-17" d="M1332,726.25l-.74-.66c2.13-2.37,213-236.54,239.86-262.36l.69.72C1545,489.75,1334.08,723.89,1332,726.25Z" transform="translate(-66.23 -48.25)"/><rect class="cls-18" x="1097.11" y="643.18" width="62.1" height="25.87"/><rect class="cls-19" x="1097.11" y="669.05" width="62.1" height="8.62"/><rect class="cls-12" x="879.23" y="1748.75" width="35.72" height="86.67"/><path class="cls-20" d="M560.22,915.65c-2.57,0-5.22-.06-7.86-.18l0-1c2.63.12,5.26.18,7.82.18h0c1.38,0,2.75,0,4.11,0l0,1c-1.36,0-2.74,0-4.13,0Zm16.16-.8-.11-1c4-.41,8-1,11.82-1.71l.18,1C584.4,913.85,580.4,914.43,576.38,914.85Zm-36-.31c-3.89-.42-7.9-1-11.91-1.64l.16-1c4,.66,8,1.21,11.86,1.63ZM600,910.35l-.27-1c3.84-1.1,7.64-2.38,11.29-3.83l.37.93C607.67,908,603.84,909.25,600,910.35Zm-83.22-.3a60.76,60.76,0,0,1-10.95-5l.51-.86a59,59,0,0,0,10.76,5Zm105.57-8.52-.46-.89c3.52-1.82,7-3.84,10.32-6l.54.83A117.37,117.37,0,0,1,622.32,901.53Zm-126.26-3.64a71.39,71.39,0,0,1-8.31-8.74l.78-.63a71,71,0,0,0,8.19,8.63Zm146.4-9.5-.63-.77c3.07-2.48,6.07-5.15,8.92-8l.7.71C648.58,883.21,645.55,885.9,642.46,888.39Zm-161.57-9.15a108.06,108.06,0,0,1-5.58-10.68l.9-.41a110.25,110.25,0,0,0,5.54,10.57Zm178.75-7.69-.76-.64c2.54-3,5-6.19,7.31-9.47l.82.58C664.68,865.32,662.2,868.53,659.64,871.55ZM470.81,857.39c-1.29-3.64-2.5-7.5-3.59-11.49l1-.26c1.09,4,2.29,7.8,3.57,11.42Zm202.73-5.5-.87-.51c2-3.41,3.91-7,5.65-10.55l.9.43C677.47,844.88,675.55,848.46,673.54,851.89ZM464.38,834.21c-.8-3.8-1.54-7.78-2.2-11.83l1-.16c.65,4,1.39,8,2.19,11.78Zm219.67-4-.93-.36A119.21,119.21,0,0,0,687,818.49l1,.27C687.24,821.21,686,825.18,684.05,830.21ZM460.52,810.47c-.46-3.87-.86-7.89-1.19-12l1-.08c.34,4.06.74,8.08,1.2,11.93Zm-2-24c-.2-3.91-.35-8-.44-12l1,0c.09,4,.24,8.09.43,12Zm.45-24h-1c0-3.92.07-8,.18-12l1,0C459.06,754.53,459,758.56,459,762.48Zm.62-24-1,0c.19-4,.42-8,.69-12l1,.07C460,730.53,459.8,734.56,459.61,738.5Zm1.61-23.93-1-.09c.35-4,.74-8,1.16-12l1,.1C462,706.58,461.56,710.6,461.22,714.57Zm2.53-23.87-1-.12c.66-5.25,1.25-9.38,1.63-11.91l1,.14C465,681.35,464.41,685.46,463.75,690.7ZM429.82,685c-.72,0-1.44,0-2.17,0-1.17-.05-2.36-.14-3.54-.25l.09-1c1.17.11,2.34.19,3.49.24a51.7,51.7,0,0,0,8.38-.33l.12,1A55.89,55.89,0,0,1,429.82,685Zm-17.61-2.34a74.11,74.11,0,0,1-11.48-3.79l.41-.91a73.07,73.07,0,0,0,11.31,3.73Zm35.8-.53-.29-1a87.71,87.71,0,0,0,11.17-4.2l.42.91A88.74,88.74,0,0,1,448,682.12Z" transform="translate(-66.23 -48.25)"/></g></g></svg>