<svg width="70" height="48" viewBox="0 0 70 48" fill="none" xmlns="http://www.w3.org/2000/svg">
<rect x="0.5" y="0.5" width="69" height="47" rx="5.5" fill="white" stroke="#D9D9D9"/>
<path d="M62.9867 21.1459L62.9999 21.1313H60.9076L59.5863 25.7115H59.5162L57.9992 21.1313H55.5127L58.5044 28.6899L57.2546 30.9939V31.0495H59.2067L62.9867 21.1459Z" fill="black"/>
<path d="M39.7911 21.1313H37.5718V28.6622H39.7911V21.1313Z" fill="black"/>
<path d="M55.0763 26.7788V23.6323C55.0763 21.9182 54.0645 20.9766 52.2803 20.9766C51.1416 20.9766 50.3559 21.1736 48.9223 21.6088L49.3151 23.3374C50.6218 22.7475 51.1971 22.4949 51.8015 22.4949C52.5316 22.4949 52.8557 23.0147 52.8557 23.8162V23.8717C50.3123 24.3492 49.5254 24.6163 49.0347 25.1083C48.6696 25.4734 48.5149 25.9932 48.5149 26.5976C48.5149 28.0445 49.6391 28.8169 50.6919 28.8169C51.4788 28.8169 52.111 28.522 52.9681 27.8752L53.1228 28.6622H55.3421L55.0763 26.7788ZM52.857 26.8357C52.2671 27.1584 51.9298 27.2853 51.537 27.2853C51.0027 27.2853 50.6654 26.9335 50.6654 26.3727C50.6654 26.1625 50.7078 25.9508 50.8757 25.7829C51.1429 25.5157 51.6627 25.3186 52.857 25.0383V26.8357Z" fill="black"/>
<path d="M45.313 20.9766C44.4983 20.9766 43.8661 21.286 43.1492 21.8759V21.1313H40.9299V31.0494H43.1492V28.5907C43.5712 28.7032 43.964 28.76 44.4414 28.76C46.4227 28.76 48.2069 27.2986 48.2069 24.6997C48.2069 22.3679 46.9147 20.9766 45.313 20.9766ZM43.9071 27.3687C43.6545 27.3687 43.4151 27.3409 43.1479 27.2562V23.1827C43.6122 22.8599 43.9904 22.7052 44.4679 22.7052C45.2971 22.7052 45.9571 23.3652 45.9571 24.7711C45.9584 26.5685 44.989 27.3687 43.9071 27.3687Z" fill="black"/>
<path d="M18.7592 17.2521H9.24312C8.00385 17.2521 7 18.2652 7 19.5138V29.1105C7 30.3591 8.00385 31.3722 9.24312 31.3722H18.7592C19.9985 31.3722 21.001 30.3591 21.001 29.1105V19.5138C21.0023 18.2639 19.9985 17.2521 18.7592 17.2521Z" fill="#1677FF"/>
<path d="M18.5278 26.1188C17.9684 25.9297 17.2158 25.64 16.3786 25.3345C16.8812 24.4523 17.2833 23.4485 17.5478 22.3574H14.7875V21.3548H18.1681V20.7954H14.7875V19.1236H13.4081C13.166 19.1236 13.166 19.3643 13.166 19.3643V20.794H9.74712V21.3535H13.166V22.356H10.3423V22.9155H15.8178C15.6181 23.6112 15.3483 24.2659 15.0296 24.8597C13.2533 24.2685 11.3567 23.7897 10.1664 24.0847C9.40457 24.2738 8.91388 24.6111 8.62556 24.9655C7.30296 26.5883 8.25126 29.0537 11.0446 29.0537C12.6965 29.0537 14.2876 28.1252 15.5202 26.595C17.36 27.4864 21.0011 29.0179 21.0011 29.0179V26.8357C21.0024 26.8357 20.5448 26.7986 18.5278 26.1188ZM10.784 28.1106C8.60572 28.1106 7.96162 26.3807 9.03821 25.4337C9.39795 25.1136 10.054 24.9576 10.4031 24.9232C11.6966 24.7949 12.8949 25.2922 14.3088 25.9879C13.3155 27.2946 12.0498 28.1106 10.784 28.1106Z" fill="white"/>
<path d="M29.943 18.7572H26.9645L23.6355 28.6622H25.6868L26.2489 26.7232H29.775L30.3093 28.6622H32.936L29.943 18.7572ZM26.7119 25.107L28.0318 20.5414H28.0874L29.3372 25.107H26.7119Z" fill="black"/>
<path d="M36.0535 18.4054H33.8342V28.6608H36.0535V18.4054Z" fill="black"/>
<path d="M37.4026 19.3194C37.4026 20.0494 37.9369 20.5414 38.6815 20.5414C39.4262 20.5414 39.9605 20.0494 39.9605 19.3194C39.9605 18.6025 39.4262 18.0973 38.6815 18.0973C37.9369 18.0973 37.4026 18.6025 37.4026 19.3194Z" fill="#1677FF"/>
</svg>
