<svg width="70" height="48" viewBox="0 0 70 48" fill="none" xmlns="http://www.w3.org/2000/svg">
<rect x="0.5" y="0.5" width="69" height="47" rx="5.5" fill="white" stroke="#D9D9D9"/>
<path fill-rule="evenodd" clip-rule="evenodd" d="M51.254 24.1292C51.254 33.0371 44.033 40.2584 35.1256 40.2584C26.2181 40.2584 18.9972 33.0371 18.9972 24.1292C18.9972 15.2213 26.2181 8 35.1256 8C44.033 8 51.254 15.2213 51.254 24.1292ZM39.0004 18.1366C41.2439 18.9071 42.885 20.0607 42.5631 22.2077C42.3292 23.7799 41.4545 24.5403 40.2922 24.8065C41.8868 25.6335 42.4302 27.2029 41.9252 29.1005C40.9665 31.8314 38.6875 32.0613 35.6563 31.4905L34.9203 34.4261L33.1435 33.9844L33.8694 31.0882C33.4088 30.9742 32.938 30.8522 32.4531 30.7221L31.7241 33.6325L29.9493 33.1908L30.6844 30.2491L27.1055 29.3496L27.9883 27.3226C27.9883 27.3226 29.2984 27.6685 29.2801 27.6433C29.7833 27.7673 30.0071 27.4406 30.0951 27.2238L32.0896 19.256C32.1119 18.8798 31.9813 18.4059 31.2614 18.2264C31.2888 18.2072 29.9706 17.9067 29.9706 17.9067L30.4434 16.0158L34.0274 16.9003L34.7563 13.9919L36.5321 14.4336L35.8183 17.2845C36.2962 17.3924 36.7761 17.5023 37.2428 17.6183L37.9515 14.7855L39.7283 15.2272L39.0004 18.1366ZM34.7489 22.9882C35.9593 23.3091 38.593 24.0074 39.052 22.1765C39.5203 20.3033 36.9616 19.7376 35.7088 19.4606C35.5668 19.4292 35.4416 19.4015 35.3395 19.3761L34.4546 22.9117C34.5388 22.9325 34.6377 22.9587 34.7486 22.9881L34.7487 22.9882L34.7489 22.9882ZM33.3776 28.6807C34.8272 29.0626 37.9978 29.8977 38.5022 27.8803C39.0186 25.8175 35.9446 25.1305 34.4447 24.7952L34.4442 24.7951C34.2768 24.7577 34.1291 24.7247 34.0081 24.6946L33.0321 28.5913C33.1312 28.6158 33.2473 28.6464 33.3772 28.6806L33.3776 28.6807Z" fill="#F7931A"/>
</svg>
