<svg width="70" height="48" viewBox="0 0 70 48" fill="none" xmlns="http://www.w3.org/2000/svg">
<rect x="0.5" y="0.5" width="69" height="47" rx="5.5" fill="white" stroke="#D9D9D9"/>
<path fill-rule="evenodd" clip-rule="evenodd" d="M17.9465 14H18.0034V15.4461H17.9465C14.2782 15.4461 11.1742 17.8617 10.1417 21.1907L8.76123 20.7522C9.98072 16.8392 13.6311 14 17.9465 14Z" fill="url(#paint0_linear_450_2263)"/>
<path fill-rule="evenodd" clip-rule="evenodd" d="M18.0032 15.4461V14H17.9463C22.2747 14 25.9364 16.8591 27.1429 20.7919L25.7641 21.232C24.7494 17.8998 21.6617 15.4709 18.0032 15.4461Z" fill="url(#paint1_linear_450_2263)"/>
<path fill-rule="evenodd" clip-rule="evenodd" d="M22.7478 30.2244L23.5982 31.3959C21.9489 32.5931 19.9723 33.2342 17.9463 33.2291C15.9517 33.2344 14.004 32.6133 12.3691 31.4505L13.2212 30.279C14.5545 31.2271 16.1853 31.7847 17.9463 31.7847C19.7414 31.7847 21.3999 31.2056 22.7478 30.2244Z" fill="url(#paint2_linear_450_2263)"/>
<path fill-rule="evenodd" clip-rule="evenodd" d="M8.76276 20.7522L10.1416 21.1906C9.89847 21.9748 9.77509 22.7923 9.77575 23.6145C9.77575 26.366 11.1351 28.7999 13.2212 30.279L12.3708 31.4505C10.0083 29.7678 8.44081 27.0444 8.3335 23.9521V23.2787C8.36439 22.4017 8.51236 21.5546 8.76276 20.7522Z" fill="url(#paint3_linear_450_2263)"/>
<path fill-rule="evenodd" clip-rule="evenodd" d="M27.5639 23.6146C27.5639 26.8145 26.003 29.6471 23.5965 31.3959L22.7461 30.2262C23.786 29.4781 24.6346 28.4875 25.221 27.3372C25.8075 26.1869 26.1146 24.9105 26.1168 23.6146C26.1168 22.784 25.9932 21.9816 25.7623 21.2271L27.1411 20.787C27.4176 21.6805 27.5639 22.6302 27.5639 23.6163V23.6146Z" fill="url(#paint4_linear_450_2263)"/>
<path fill-rule="evenodd" clip-rule="evenodd" d="M22.4504 25.0426C22.4504 24.5418 22.1008 24.3174 21.3252 24.3174H19.4147V25.7646H21.3252C22.1138 25.7646 22.4504 25.5483 22.4504 25.0426ZM21.0569 22.0085H19.4147V23.4557H21.0569C21.8 23.4557 22.1366 23.2313 22.1366 22.7354C22.1366 22.2378 21.7951 22.0085 21.0569 22.0085ZM23.4536 25.1337C23.4536 26.0995 22.6829 26.6491 21.3236 26.6491H18.5155C18.4667 26.6491 18.4342 26.6166 18.4342 26.5694V21.2037C18.4342 21.1565 18.4667 21.1256 18.5155 21.1256H21.0764C22.3983 21.1256 23.1252 21.6346 23.1252 22.5532C23.1252 23.098 22.8813 23.5353 22.1772 23.7451C23.0683 23.9305 23.4292 24.4557 23.4536 25.1337ZM17.2667 21.2037V21.9533C17.2667 22.002 17.2342 22.0329 17.1854 22.0329H13.9334V23.4329H16.6326C16.6814 23.4329 16.7123 23.4654 16.7123 23.5126V24.2605C16.7123 24.3093 16.6797 24.3418 16.631 24.3418H13.9351V26.5694C13.9351 26.6182 13.9025 26.6491 13.8538 26.6491H13.0359C12.9871 26.6491 12.9546 26.6166 12.9546 26.5694V21.2037C12.9546 21.1565 12.9871 21.1256 13.0359 21.1256H17.187C17.2358 21.1256 17.2683 21.1581 17.2683 21.2037H17.2667Z" fill="#64717D"/>
<path fill-rule="evenodd" clip-rule="evenodd" d="M55.0553 20.3798C55.8529 22.8366 56.7688 25.2535 57.7999 27.6219L60.3202 20.3798H62.3348L58.7235 29.7357C58.2617 30.9341 57.7137 31.8576 57.0796 32.508C56.4455 33.1584 55.5951 33.4836 54.5301 33.4836C54.265 33.4836 54.0146 33.4625 53.7821 33.4202V31.7861C53.9772 31.817 54.1512 31.8316 54.2975 31.8316C54.9447 31.8316 55.4715 31.6528 55.878 31.2918C56.2845 30.9324 56.6422 30.404 56.9495 29.7081C56.1867 28.202 55.4752 26.6706 54.8162 25.1163C54.1514 23.5499 53.5171 21.9708 52.9138 20.3798H55.0553ZM47.5757 20.1619C48.7074 20.1619 49.6179 20.4822 50.3074 21.1228C50.9984 21.7651 51.3431 22.7244 51.3431 24.0008V29.4528H49.5708V27.9731C49.2131 28.5065 48.7529 28.9162 48.1936 29.204C47.5999 29.4989 46.9441 29.6467 46.2814 29.6349C45.3074 29.6349 44.5513 29.3878 44.0131 28.8951C43.4749 28.4024 43.205 27.752 43.205 26.9488C43.205 26.1504 43.5091 25.4805 44.1156 24.9423C44.7221 24.4057 45.6895 24.1342 47.0196 24.1342H49.5318V24.1082C49.5318 22.583 48.8179 21.8204 47.3903 21.8204C46.792 21.8204 46.2895 21.9261 45.8782 22.1391C45.47 22.3505 45.1383 22.6464 44.8863 23.0285L43.6213 22.0204C44.0148 21.422 44.5335 20.9619 45.1774 20.6415C45.8613 20.3116 46.6132 20.1468 47.3724 20.1603H47.5741L47.5757 20.1619ZM37.0815 16.7505C38.701 16.7505 39.9108 17.1294 40.7108 17.8887C41.5107 18.6481 41.9124 19.6773 41.9124 20.9781C41.9124 22.274 41.5107 23.3033 40.7108 24.0643C39.9108 24.8268 38.701 25.2073 37.0815 25.2073H33.6084V29.4544H31.667V16.7505H37.0799H37.0815ZM49.5318 25.5618H47.0928C46.3676 25.5618 45.8489 25.6756 45.5367 25.9033C45.3887 26.0058 45.2686 26.1437 45.1874 26.3044C45.1062 26.4651 45.0664 26.6436 45.0717 26.8236C45.0717 27.6203 45.6082 28.0203 46.6879 28.0203C47.4017 28.0203 47.9952 27.8626 48.47 27.5439C48.9448 27.2268 49.2992 26.7959 49.5318 26.2512V25.5618ZM36.8978 18.5278H33.6084V23.4285H36.8962C37.9498 23.4285 38.7173 23.2252 39.2018 22.8155C39.6848 22.409 39.9254 21.796 39.9254 20.9781C39.9254 20.1619 39.6848 19.5489 39.2018 19.1408C38.7173 18.7326 37.9498 18.5278 36.8962 18.5278H36.8978Z" fill="#1B2529"/>
<defs>
<linearGradient id="paint0_linear_450_2263" x1="18.0034" y1="15.8713" x2="10.602" y2="21.238" gradientUnits="userSpaceOnUse">
<stop stop-color="#24D365"/>
<stop offset="1" stop-color="#139DBD"/>
</linearGradient>
<linearGradient id="paint1_linear_450_2263" x1="17.9463" y1="15.8233" x2="25.3694" y2="21.221" gradientUnits="userSpaceOnUse">
<stop stop-color="#23D068"/>
<stop offset="0.52" stop-color="#EACD36"/>
<stop offset="1" stop-color="#FF6C5C"/>
</linearGradient>
<linearGradient id="paint2_linear_450_2263" x1="12.7935" y1="30.883" x2="23.1592" y2="30.883" gradientUnits="userSpaceOnUse">
<stop stop-color="#266FF3"/>
<stop offset="1" stop-color="#C439D6"/>
</linearGradient>
<linearGradient id="paint3_linear_450_2263" x1="11.1904" y1="30.9127" x2="8.0802" y2="21.8389" gradientUnits="userSpaceOnUse">
<stop stop-color="#266FF3"/>
<stop offset="1" stop-color="#149FBA"/>
</linearGradient>
<linearGradient id="paint4_linear_450_2263" x1="25.4404" y1="21.017" x2="22.3236" y2="30.0526" gradientUnits="userSpaceOnUse">
<stop stop-color="#FF6C5C"/>
<stop offset="1" stop-color="#C439D6"/>
</linearGradient>
</defs>
</svg>
