<svg width="70" height="48" viewBox="0 0 70 48" fill="none" xmlns="http://www.w3.org/2000/svg">
<rect x="0.5" y="0.5" width="69" height="47" rx="5.5" fill="white" stroke="#D9D9D9"/>
<path fill-rule="evenodd" clip-rule="evenodd" d="M12.7257 15.4856C11.4846 15.4875 10.4804 16.3766 10.478 17.4753V17.4753V30.6854V30.6854C10.4783 30.8227 10.4943 30.9567 10.5244 31.0862C10.5578 31.23 10.6088 31.3682 10.6752 31.4989C11.0269 32.1914 11.8121 32.6736 12.7257 32.6752H36.1121V32.6751V15.4856V15.4856H12.7257ZM12.7257 14H57.4839C59.6522 14.0003 61.4088 15.5552 61.4096 17.4753V30.6854C61.4088 32.6049 59.6522 34.1599 57.4839 34.1605H12.7257C10.5573 34.1599 8.80079 32.6049 8.80005 30.6854V17.4753C8.80079 15.5552 10.5573 14.0003 12.7257 14Z" fill="#0F3365"/>
<path fill-rule="evenodd" clip-rule="evenodd" d="M39.9395 28.5245H37.9761V21.4642H39.787V22.3722H39.8089C40.2015 21.6671 41.0309 21.3483 41.9255 21.3483C43.4967 21.3483 44.3578 22.6717 44.3578 23.8883C44.3578 25.3759 43.4525 26.6121 41.7615 26.6121C41.0744 26.6121 40.3324 26.3903 39.9614 25.7915H39.9395V28.5245ZM41.1402 25.2793C41.8816 25.2793 42.329 24.729 42.329 23.9272C42.329 23.2604 41.9035 22.6812 41.1402 22.6812C40.4198 22.6812 39.9394 23.2415 39.9394 23.9946C39.9394 24.729 40.4854 25.2793 41.1402 25.2793ZM51.8817 28.5245C52.2856 28.6021 52.689 28.6407 53.1037 28.6407C54.8021 28.6407 55.2767 27.5488 55.7917 26.3637C55.8227 26.2924 55.8538 26.2208 55.8853 26.1491L57.9694 21.4642H56.0057L54.8381 24.748H54.8164L53.5943 21.4642H51.4787L53.7795 26.6121C53.6385 27.0564 53.2675 27.3077 52.7882 27.3077C52.5146 27.3077 52.2745 27.2792 52.0132 27.2012L51.8817 28.5245ZM51.1499 26.6599C51.0628 26.264 51.0405 25.8682 51.0405 25.472V23.5983C51.0405 22.0625 49.7862 21.5123 48.3352 21.5123C47.4948 21.5123 46.764 21.6181 46.0659 21.8697L46.0982 23.0478C46.6442 22.7776 47.2768 22.6712 47.9091 22.6712C48.6186 22.6712 49.1971 22.8547 49.2078 23.5407C48.9569 23.5017 48.6082 23.4724 48.2917 23.4724C47.2443 23.4724 45.357 23.6565 45.357 25.1921C45.357 26.2839 46.3606 26.7764 47.4844 26.7764C48.2917 26.7764 48.8372 26.4958 49.2842 25.8682H49.3055C49.3055 26.0214 49.3171 26.1746 49.3287 26.3297C49.3369 26.4387 49.3452 26.5485 49.3495 26.6599H51.1499ZM47.1894 25.0667C47.1894 24.5838 47.7129 24.4003 48.3785 24.4003C48.5872 24.4003 48.7904 24.4099 48.9802 24.419L48.9802 24.419C49.0585 24.4227 49.1345 24.4263 49.2078 24.4291C49.2078 25.018 48.739 25.6176 47.9965 25.6176C47.5386 25.6176 47.1894 25.4139 47.1894 25.0667Z" fill="#FFFFFE"/>
<path fill-rule="evenodd" clip-rule="evenodd" d="M20.9106 26.496H22.8742V21.4642H20.9106V26.496ZM20.9106 20.6431H22.8742V19.3681H20.9106V20.6431ZM27.6766 21.3483C27.9054 21.3483 28.1454 21.3773 28.3419 21.4058L28.2434 22.8546C28.0256 22.7969 27.8072 22.7969 27.5784 22.7969C26.6621 22.7969 26.1491 23.3861 26.1491 24.3716V26.496H24.1856V21.4642H25.9747V22.3911H25.9963C26.3347 21.754 26.8257 21.3483 27.6766 21.3483ZM35.0281 23.9853C35.0281 25.6466 33.5988 26.6121 31.7229 26.6121C29.8466 26.6121 28.4174 25.6466 28.4174 23.9853C28.4174 22.3139 29.8466 21.3483 31.7229 21.3483C33.5988 21.3483 35.0281 22.3139 35.0281 23.9853ZM30.4465 23.9853C30.4465 24.729 30.8174 25.3951 31.7229 25.3951C32.6283 25.3951 32.9994 24.729 32.9994 23.9853C32.9994 23.2318 32.6283 22.5653 31.7229 22.5653C30.8174 22.5653 30.4465 23.2318 30.4465 23.9853ZM17.777 21.4642H19.5556V25.9074C19.5556 27.974 18.4211 28.6407 16.1301 28.6407C15.1921 28.6407 14.4174 28.4665 13.9591 28.3222L14.0575 26.9505C14.6574 27.2113 15.1592 27.3656 15.9774 27.3656C17.1122 27.3656 17.7228 26.8925 17.7228 25.9074V25.6364H17.7007C17.232 26.2263 16.5775 26.496 15.7921 26.496C14.2319 26.496 13.261 25.4537 13.261 23.9657C13.261 22.4684 14.0575 21.3483 15.8246 21.3483C16.6644 21.3483 17.341 21.754 17.7557 22.3718H17.777V21.4642ZM16.403 22.6812C15.672 22.6812 15.2902 23.251 15.2902 23.9366C15.2902 24.7187 15.8139 25.1634 16.403 25.1634C17.1009 25.1634 17.6575 24.642 17.6575 23.8689C17.6575 23.3085 17.2864 22.6812 16.403 22.6812Z" fill="#D8232A"/>
</svg>
