<svg width="70" height="48" viewBox="0 0 70 48" fill="none" xmlns="http://www.w3.org/2000/svg">
<rect x="0.5" y="0.5" width="69" height="47" rx="5.5" fill="white" stroke="#D9D9D9"/>
<path fill-rule="evenodd" clip-rule="evenodd" d="M19.0266 9.91185H35.684C47.003 9.91185 51.3527 16.0977 51.3527 23.9167C51.3527 33.2698 45.273 37.9711 35.684 37.9711H19.0266V9.91185ZM20.6082 11.5944V36.3875H35.6838C44.7786 36.3875 49.7215 32.1316 49.7215 23.9662C49.7215 15.5534 44.3832 11.5944 35.6838 11.5944H20.6082ZM25.0568 24.4115C26.722 24.4115 28.072 23.06 28.072 21.3928C28.072 19.7256 26.722 18.3741 25.0568 18.3741C23.3916 18.3741 22.0417 19.7256 22.0417 21.3928C22.0417 23.06 23.3916 24.4115 25.0568 24.4115ZM22.635 25.6982H27.479V34.309H22.635V25.6982Z" fill="black"/>
<path fill-rule="evenodd" clip-rule="evenodd" d="M44.2351 18.6216H45.6191V22.7785H47.6456C47.1019 15.207 41.1211 13.5244 35.684 13.5244H29.9009V18.6216H30.7412C32.3229 18.6216 33.262 19.6608 33.262 21.3929C33.262 23.1249 32.3229 24.1641 30.7906 24.1641H29.9009V34.309H35.684C44.5317 34.309 47.5468 30.2016 47.6951 24.1641H44.2351V18.6216ZM37.5623 22.7785V24.1641H34.1023V18.6216H37.4634V20.0072H35.4863V20.6505H37.3646V22.0362H35.5357V22.7785H37.5623ZM39.8358 18.6216H41.813L43.4935 24.1641H42.0601L41.7635 23.1249H39.9347L39.6381 24.1641H38.1553L39.8358 18.6216ZM40.3456 21.6898H40.3302V21.7393L40.3456 21.6898ZM40.3456 21.6898H41.3188L40.8739 20.1557H40.8245L40.3456 21.6898ZM29.9009 22.7785V20.0072H30.7412C31.2849 20.0072 31.878 20.1557 31.878 21.3929C31.878 22.63 31.3343 22.7785 30.7412 22.7785H29.9009Z" fill="#D50072"/>
</svg>
