<svg width="70" height="48" viewBox="0 0 70 48" fill="none" xmlns="http://www.w3.org/2000/svg">
<rect x="0.5" y="0.5" width="69" height="47" rx="5.5" fill="white" stroke="#D9D9D9"/>
<path d="M44.6364 24.5746C45.6638 24.5969 46.697 24.5292 47.7202 24.6098C48.7565 24.8031 49.0062 26.3718 48.0856 26.8856C47.4574 27.2241 46.7112 27.0117 46.0302 27.0714H44.6364V24.5746ZM48.3142 21.7486C48.5425 22.5542 47.7658 23.2776 46.9899 23.1666H44.6364C44.6529 22.4069 44.6042 21.5822 44.6603 20.8625C45.6031 20.889 46.5546 20.8083 47.492 20.9047C47.8947 21.0058 48.2318 21.3369 48.3142 21.7486ZM53.9782 9.80088C54.0219 11.3395 53.9845 12.9594 53.9971 14.5292C53.9942 20.9115 54.0032 27.2936 53.992 33.6763C53.9507 36.0682 51.8309 38.1466 49.4556 38.1943C47.0779 38.204 44.6999 38.1958 42.3219 38.1985V28.5498C44.9128 28.5364 47.5051 28.5769 50.095 28.5295C51.2964 28.4541 52.6124 27.6614 52.6683 26.3392C52.8098 25.0114 51.5579 24.0929 50.3693 23.9478C49.9124 23.936 49.9257 23.8146 50.3693 23.7617C51.5029 23.5167 52.3931 22.3434 52.0596 21.1683C51.7754 19.9324 50.4093 19.4541 49.2731 19.4564C46.9564 19.4407 44.6392 19.4542 42.3224 19.4497C42.3374 17.6484 42.2912 15.8451 42.3473 14.0452C42.5309 11.6964 44.704 9.75947 47.046 9.8015C49.357 9.80115 51.6677 9.80115 53.9782 9.80106V9.80088Z" fill="url(#paint0_linear_356_31959)"/>
<path d="M16.1412 14.2885C16.2004 11.9003 18.3292 9.83899 20.7015 9.80409C23.0704 9.79679 25.4396 9.80303 27.8085 9.80092C27.802 17.7911 27.8214 25.7821 27.7988 33.7719C27.7075 36.131 25.6019 38.153 23.2554 38.1948C20.882 38.2034 18.5084 38.196 16.135 38.1984V28.2244C18.4404 28.7691 20.8579 29.0009 23.2099 28.6397C24.6157 28.4134 26.1539 27.723 26.6298 26.2645C26.9801 25.0169 26.7829 23.7039 26.835 22.4234V19.4497H22.7648C22.7465 21.4165 22.8023 23.3866 22.7354 25.351C22.6257 26.5584 21.4299 27.3256 20.2912 27.2846C18.8789 27.2996 16.0803 26.2611 16.0803 26.2611C16.0733 22.5762 16.1213 17.9615 16.1412 14.2888V14.2885Z" fill="url(#paint1_linear_356_31959)"/>
<path d="M29.3264 20.6492C29.1121 20.6946 29.2833 19.9194 29.2285 19.6253C29.2431 17.7659 29.198 15.9045 29.2534 14.0464C29.4365 11.6877 31.6263 9.74596 33.9778 9.80117H40.9026C40.8961 17.7913 40.9154 25.7824 40.8929 33.7721C40.8015 36.1312 38.6957 38.1532 36.3492 38.195C33.9757 38.204 31.6021 38.1965 29.2284 38.1987V27.2709C30.8495 28.601 33.0527 28.808 35.0723 28.8116C36.5948 28.8111 38.1084 28.5763 39.587 28.2252V26.2232C37.9207 27.0536 35.962 27.5811 34.1149 27.104C32.8264 26.7833 31.8911 25.5381 31.912 24.2084C31.7627 22.8255 32.5732 21.3656 33.9321 20.9545C35.6193 20.4263 37.4581 20.8303 39.0396 21.517C39.3784 21.6944 39.7224 21.9145 39.5869 21.3481V19.7745C36.9419 19.1452 34.127 18.9137 31.4697 19.5983C30.7006 19.8152 29.9512 20.1443 29.3264 20.6494V20.6492Z" fill="url(#paint2_linear_356_31959)"/>
<defs>
<linearGradient id="paint0_linear_356_31959" x1="42.2422" y1="23.3925" x2="53.9234" y2="23.3925" gradientUnits="userSpaceOnUse">
<stop stop-color="#58B03A"/>
<stop offset="1" stop-color="#55B330"/>
</linearGradient>
<linearGradient id="paint1_linear_356_31959" x1="15.8866" y1="24.2716" x2="27.6171" y2="24.2716" gradientUnits="userSpaceOnUse">
<stop stop-color="#0F6EB6"/>
<stop offset="1" stop-color="#006DBA"/>
</linearGradient>
<linearGradient id="paint2_linear_356_31959" x1="29.2113" y1="23.6679" x2="40.9004" y2="23.6679" gradientUnits="userSpaceOnUse">
<stop stop-color="#DE0D3D"/>
<stop offset="1" stop-color="#E30138"/>
</linearGradient>
</defs>
</svg>
