<svg width="70" height="48" viewBox="0 0 70 48" fill="none" xmlns="http://www.w3.org/2000/svg">
<rect x="0.5" y="0.5" width="69" height="47" rx="5.5" fill="white" stroke="#D9D9D9"/>
<path fill-rule="evenodd" clip-rule="evenodd" d="M42.8513 32.2504H53.2375V27.5963H47.975V16.7213H42.8513V32.2504ZM11 16.813V32.3183L15.6291 32.3251V27.5928H16.6705C18.5155 27.5928 20.6209 27.2071 21.5755 26.2827C22.5301 25.3583 22.9241 23.9735 22.9241 22.2046C22.9464 21.2551 22.7692 20.3112 22.4034 19.4315C22.1041 18.7077 21.5793 18.0947 20.9038 17.6796C20.2315 17.3113 19.503 17.0514 18.7463 16.9099C18.144 16.8035 17.062 16.8072 15.8421 16.8113C15.5997 16.8122 15.3519 16.813 15.1014 16.813H11ZM15.8078 24.7551C15.7358 24.754 15.6639 24.7484 15.5926 24.7381L15.5874 19.9667V19.7068C16.5073 19.7068 17.3404 19.8308 17.6876 20.1944C18.1844 20.7214 18.1835 21.27 18.1823 21.9303L18.1822 22.0262C18.1822 22.8724 18.1718 23.7866 17.8351 24.1961C17.6164 24.4612 17.238 24.8078 15.8078 24.7551ZM59.0348 22.0771H54.1263V32.2724H59.0348V22.0771ZM54.0569 16.7893H59.0696V21.005H54.0569V16.7893Z" fill="black"/>
<path fill-rule="evenodd" clip-rule="evenodd" d="M35.9625 31.1816C36.6238 30.9488 37.2764 30.4577 37.8388 29.9582C39.4235 28.5444 41.0932 26.1451 40.963 23.2242C40.8276 20.1486 39.1423 18.1775 36.898 16.949C37.5454 17.0883 38.08 17.5097 38.5782 17.9057C40.0188 19.0475 41.1123 20.8164 41.1591 23.3024C41.2216 26.609 39.4235 28.8639 37.6409 30.4187C38.1998 30.1468 38.6302 29.6438 39.0468 29.1561C40.2271 27.773 41.3136 25.8036 41.3136 23.3397C41.3136 19.8716 39.3106 17.8751 36.9744 16.5684C37.7271 16.8065 38.4198 17.198 39.0069 17.717C39.8699 18.4521 40.5453 19.3746 40.9793 20.4108C41.4132 21.4469 41.5937 22.5681 41.5063 23.6847C41.3646 26.1182 40.2735 28.4054 38.4584 30.0737C36.671 31.7457 34.3551 32.7717 31.8923 32.9828C31.567 33.0057 31.2405 33.0057 30.9152 32.9828C26.8363 32.6514 23.877 30.0941 23.568 26.1723C23.5359 25.7646 23.5359 25.355 23.568 24.9472C23.7416 22.4731 24.8837 20.5021 26.3816 18.9796C28.0114 17.3228 30.0716 16.0739 32.9459 15.8802C33.0171 15.5726 33.1004 15.2209 33.1438 15C34.0897 15.9838 35.2387 17.056 36.4259 18.2132C34.9957 18.9303 33.6037 19.6847 32.2048 20.4324C32.236 20.152 32.302 19.8326 32.3211 19.6287C29.9206 20.045 27.8968 21.751 27.4768 24.1435C26.9561 27.0627 28.9556 29.2938 31.816 29.3091C34.7059 29.3244 37.1584 27.1392 37.5993 24.6413C37.9464 22.6227 37.0438 21.2123 35.8792 20.2795C36.9657 20.9829 38.1356 22.2539 37.9898 24.1435C37.7537 27.1035 34.9107 29.5555 31.9357 29.5776C31.1535 29.5806 30.3802 29.4147 29.6709 29.0916C28.9617 28.7685 28.334 28.2962 27.8326 27.7084C28.8063 29.095 30.509 29.8256 32.4443 29.6982C33.9647 29.5979 35.2509 28.8673 36.1968 27.9769C37.1428 27.0865 37.9151 25.8019 38.1061 24.4952C38.1833 23.9751 38.1833 23.4469 38.1061 22.9268C37.8683 21.3975 36.9206 20.6856 36.0528 19.6983C37.2886 20.6635 38.5834 21.9498 38.4983 24.0313C38.3699 27.0729 35.3949 29.7543 32.2829 29.9616C30.2417 30.0975 28.9851 29.4144 27.9055 28.4323C28.9278 29.6999 30.8561 30.3507 32.8695 30.0397C35.7421 29.5962 38.3022 27.2496 38.6146 24.3389C38.8958 21.7102 37.5368 20.4902 36.2385 19.2022C37.627 20.2217 38.8021 21.3619 38.8871 23.4587C38.9618 25.2802 38.0557 27.0627 36.8946 28.2029C35.0374 30.0261 31.4202 31.2224 28.6084 29.5419C31.0037 31.3311 34.7232 30.3065 36.6984 28.5478C38.1321 27.2734 39.1787 25.5742 39.0052 23.0373C38.8646 20.9982 37.6843 19.9549 36.3478 18.8674C37.7225 19.5573 39.0485 20.9371 39.2395 22.9234C39.4946 25.5232 38.271 27.4433 36.7818 28.7347C34.9819 30.2895 32.4426 31.2156 29.5908 30.4951C34.3154 31.9361 38.7327 28.502 39.361 24.5275C39.8122 21.6711 38.3196 19.9872 36.8998 18.7875C36.754 18.6652 36.6707 18.5768 36.4711 18.4052C38.5001 19.4383 40.1854 21.7221 39.5189 24.9472C38.7431 28.7025 34.9003 31.7441 29.9432 30.9539C30.6635 31.236 31.5053 31.1748 32.2308 31.1374C34.4872 31.0134 36.5283 29.9106 37.6218 28.7228C38.9479 27.2785 39.998 25.4587 39.7949 22.8368C39.6109 20.4579 38.2571 19.3279 36.6012 18.079C37.2951 18.3516 37.9122 18.7827 38.4011 19.3364C39.3455 20.3172 39.9187 21.5848 40.0257 22.9285C40.2271 25.632 38.9583 27.6405 37.5645 29.0457C36.0788 30.5461 34.0654 31.5096 31.507 31.5316C35.5199 31.6506 38.1859 29.2394 39.479 26.5581C40.2201 25.0288 40.4354 22.8572 39.8261 21.163C39.269 19.6032 37.9915 18.5327 36.7366 17.6644C38.9288 18.8113 40.7738 20.9642 40.3729 24.2998C40.2377 25.4516 39.848 26.5609 39.2308 27.5504C38.0349 29.5147 36.0788 30.8961 33.8849 31.6472C35.5095 31.3074 37.0508 30.3507 38.1842 29.1205C39.5727 27.6201 40.6384 25.722 40.569 23.0764C40.4909 20.2285 38.6927 18.587 36.8564 17.299C36.8803 17.3023 36.9036 17.3086 36.9258 17.3177C38.9305 18.2795 40.4475 19.9481 40.7634 22.5411C41.2667 26.6345 38.514 29.6234 35.9625 31.1816Z" fill="#30469D"/>
</svg>
